<?xml version="1.0"?>
<svg xmlns="http://www.w3.org/2000/svg" version="1.2" baseProfile="tiny" width="800" height="447" viewBox="0 0 800 447" stroke-linecap="round" stroke-linejoin="round">
<g id="CEUTA">
<path d="M 285.9036 299.5409 278.0328 297.6984 272.1122 297.7952 260.0748 301.1345 259.677 302.6077 238.2912 305.5903 232.6495 316.2289 237.3046 336.9833 225.8589 340.0952 225.1339 347.5153 192.6971 362.2758 190.1644 377.2672 196.4306 384.6949 203.3459 403.4845 196.4217 415.8572 196.0269 415.5418 194.9517 414.4138 193.9043 413.5417 192.5768 413.3176 190.5778 413.4728 188.718 414.1162 187.218 414.8792 186.0845 415.5264 184.4145 415.4387 183.1369 415.491 182.4836 415.7632 181.2798 415.2581 180.2927 414.5768 179.5217 414.0397 179.1086 413.4514 178.8658 412.6453 179.1002 411.5495 179.436 410.4727 179.9753 408.344 180.0076 407.36 179.57 406.5159 179.2965 405.9882 178.8359 405.6357 177.8111 404.8274 176.0089 404.1018 175.1261 403.8879 173.8777 403.7471 172.8112 403.4097 172.0336 403.0441 171.4304 402.1823 171.0521 401.1445 170.8139 399.654 170.6718 398.0548 170.6463 396.88 170.8082 395.8714 170.9748 394.9482 171.2713 394.129 171.3309 392.9521 170.5957 391.4525 170.0956 390.3534 169.7287 388.8018 169.1717 387.5545 168.2169 386.4449 167.2057 385.7642 166.0973 385.1286 165.0275 384.6629 163.5522 384.0362 161.9456 383.37 160.6388 382.5683 159.3513 382.1079 158.1717 381.1746 156.484 380.1255 155.079 379.3263 154.3461 378.4893 153.0492 377.5375 152.206 377.0877 151.413 376.5299 150.8049 375.9035 149.6291 375.12 148.8738 374.2405 147.7835 373.3695 147.0713 372.9592 146.4267 372.6972 145.7654 372.7347 145.0722 373.6703 144.6031 374.4941 143.3499 374.7168 142.0395 374.1929 140.9065 373.8787 139.2834 373.4051 137.9546 373.1166 136.7377 372.3983 135.9252 371.905 134.9529 371.5224 133.6915 370.7197 132.6771 369.8896 131.7669 369.3133 130.4326 368.7046 128.7174 368.0624 126.9051 367.9138 125.2817 367.8679 123.7169 367.6069 122.6157 367.8259 122.1644 367.9864 120.9674 367.2034 120.0693 366.6909 119.1867 365.9431 118.0216 365.159 116.4123 364.8351 115.2951 364.8195 113.4653 365.8256 112.4008 366.6853 111.0537 367.5087 109.9125 367.8355 108.6015 367.8674 106.8112 367.6333 105.3755 367.3262 104.1074 366.2459 103.3849 365.4085 102.4111 364.5133 101.6363 363.1641 101.135 362.5564 100.6786 361.9477 100.3411 361.4002 100.0227 360.66 99.7877 359.7469 99.4758 358.3863 99.2957 357.0016 99.2877 356.1043 99.1119 354.9971 98.8471 354.2769 98.3375 353.7763 97.6831 353.5356 96.1887 353.4652 94.6651 353.6949 93.6811 353.6972 92.4742 354.0687 90.8732 354.6207 90.2338 355.1279 89.1561 355.8808 88.6412 356.1497 87.928 356.1457 87.1901 355.6506 86.5552 354.8113 86.1065 354.0743 85.8972 353.3314 85.4259 352.6587 84.738 351.8206 84.3852 351.5088 83.5988 350.7797 82.7682 350.4368 81.406 349.4226 80.715 349.0119 80.2289 348.5965 79.858 348.0071 79.2176 347.3598 78.4839 346.5015 78.1542 345.7402 77.775 344.7875 77.2913 343.3674 76.7691 342.3541 76.4811 341.4423 75.3541 339.9309 74.7922 339.0255 73.91 337.743 72.7887 336.4666 71.9999 335.5456 71.2521 334.5377 70.6534 333.3127 70.2173 332.6608 69.8028 331.5807 69.0073 330.2537 68.4239 328.9001 67.9503 327.458 67.157 326.3231 66.7161 324.9235 65.7901 323.7062 65.3556 323.1185 65.2446 322.4799 65.1642 321.2422 64.9695 320.2422 64.5714 319.3971 64.1605 318.3597 63.8509 317.1062 63.8164 315.4611 63.8266 314.4566 64.3472 313.8667 65.1513 313.569 65.995 311.9456 66.541 311.2056 66.8167 310.3864 66.8153 308.7836 66.4747 308.0222 65.5261 307.2973 64.5324 306.3596 63.9349 305.7329 62.9954 304.9437 62.0941 304.303 61.0653 303.7723 60.2919 303.0434 59.6547 302.0969 59.0373 300.6587 58.7603 299.7675 58.5694 298.4684 58.4813 297.3589 58.7141 296.0922 58.321 295.0119 58.3259 293.6863 58.1132 292.8153 57.5786 291.7382 57.4003 291.3794 56.7889 290.7313 55.8593 289.8137 54.815 289.0912 54.2171 287.9088 53.8479 286.9344 53.2849 285.8793 52.8381 284.7787 52.2526 283.126 51.7934 281.9615 51.4441 280.8159 51.1312 279.8828 50.815 279.2278 50.4875 278.1243 50.0724 277.0232 49.9364 276.2354 49.8722 275.2325 49.6654 274.5964 49.3055 273.579 49.1582 273.1977 49.1581 272.2147 49.438 271.139 49.8946 270.1017 50.2163 269.4312 50.6578 268.3516 51.1391 267.0146 51.5725 266.1278 51.8807 265.2437 52.2459 264.1662 52.8638 263.1036 53.7185 261.5863 53.4369 261.6145 53.9285 260.7049 54.3891 259.9456 54.6854 259.233 55.0241 258.2627 55.0833 257.5346 55.1898 256.8693 55.1413 255.6307 55.0824 254.4137 54.916 253.7979 55.127 252.9589 55.3093 252.3559 55.8526 251.4023 55.9549 250.1172 55.9648 249.0908 56.0554 248.2337 56.2875 247.4794 56.495 247.0473 56.9031 246.4388 57.1702 245.7052 57.6936 244.7948 57.8412 244.1926 57.5433 243.4306 57.1909 242.6052 56.8237 241.6095 56.3759 240.9149 55.8594 240.1367 55.355 238.8665 54.8024 237.7897 54.5138 236.9632 54.3122 236.1132 54.3766 235.1494 54.6729 234.3087 54.9034 233.3838 55.0586 232.5464 55.0689 231.5413 55.2636 230.4677 55.4035 229.9725 55.4385 229.5657 55.0523 229.2116 54.6353 229.0138 54.4954 228.9475 53.8402 228.7068 53.4451 228.5242 52.8508 228.0469 52.4507 227.565 52.0794 226.9541 51.6497 226.1311 51.4124 225.6665 51.6241 224.8491 51.2564 224.3878 51.0564 223.7086 50.7662 223.2667 49.8525 222.6691 49.0697 221.9828 48.4388 221.2929 47.8963 220.7716 47.2835 219.9531 46.2148 219.6584 45.0779 219.173 44.5221 218.524 43.6597 218.182 42.8974 217.452 42.5228 217.6965 41.4313 217.8941 39.948 217.8235 38.9649 217.4413 37.8887 217.2753 37.4152 216.9449 37.0674 216.8677 36.3198 216.4158 35.9626 215.8472 35.9085 215.3785 35.8189 214.7394 35.5868 213.9539 35.2916 213.4052 34.9638 212.7292 34.3685 212.2093 33.8214 211.4746 33.4218 211.014 33.1626 210.5289 33.0066 209.913 33.141 209.0756 33.2824 208.559 33.7265 208.0995 34.1924 207.575 35.2458 206.694 35.7528 206.083 36.0481 205.6485 36.1115 205.0911 36.1865 204.5548 36.4378 203.7364 36.4491 203.2017 36.7162 202.4898 36.8528 201.8661 37.1832 201.0031 37.7013 199.9855 37.7357 199.0016 37.4161 198.2185 37.0815 197.2432 36.4852 196.2529 35.9686 195.4533 35.2673 194.5083 34.8749 193.898 34.5125 193.2228 34.3327 192.3936 34.2538 191.7756 34.3621 191.1957 34.7402 190.652 35.5612 190.076 36.6642 188.916 37.6998 188.7198 39.0336 187.7677 40.349 187.0514 41.1957 186.5391 42.2575 185.5512 42.3052 184.7807 42.4668 183.216 42.4288 181.977 42.1231 180.766 41.7562 179.3641 41.3884 178.3468 41.2205 177.56 40.9964 176.2184 40.3938 174.9505 39.9027 174.2357 39.43 173.3923 39.2198 172.7347 39.0109 172.0127 38.6824 171.4225 38.4173 170.6804 38.1741 169.8743 37.897 169.09 37.3847 168.4826 36.9701 167.8301 36.6397 167.0469 36.3681 166.4976 36.1657 165.7117 35.5572 164.1017 35.1344 162.573 34.5832 160.577 34.2374 159.5805 34.6895 158.3723 34.7678 156.5532 34.2442 154.8129 34.2369 153.5304 34.3175 152.2457 34.729 151.1025 35.0818 149.9608 35.3647 149.0134 36.2843 147.8791 37.1675 147.0021 42.5236 144.9258 42.6938 144.0453 42.9684 143.3972 43.0411 142.3478 41.9976 141.1119 41.6364 139.9235 41.3017 138.9697 41.2551 137.9233 41.3162 136.596 41.3558 135.3764 41.3935 133.195 41.4017 131.1208 41.2015 129.0093 40.5466 126.8017 40.3724 125.6301 39.7737 124.5543 39.4149 123.5798 39.7582 122.3742 39.6444 121.8424 39.2921 121.3592 38.8789 120.4502 38.3091 119.78 37.7755 118.724 37.3061 117.5809 37.0659 116.5605 36.6579 115.7581 35.664 115.2692 34.8718 115.0749 33.6996 114.8896 32.1831 114.0289 31.4461 113.0419 30.8536 112.3082 30.2566 111.2751 29.5819 110.1157 29.2283 109.5684 28.9367 108.8487 28.3984 107.173 28.4805 106.0593 28.4251 104.1148 28.3921 103.1965 28.7295 102.3972 29.0825 101.9181 29.4112 101.4183 29.4806 100.7752 29.4308 100.2633 29.402 97.9762 29.4209 95.902 29.3828 94.6628 29.4258 93.6995 29.0234 92.6834 28.612 91.6243 27.5723 90.8802 26.4314 90.459 25.3651 90.0573 24.3315 89.7835 23.4984 89.0126 22.4999 88.7592 21.4468 88.5713 20.3649 88.6192 19.1562 88.1569 18.3 87.1942 17.705 86.3537 17.4126 85.4841 17.7277 84.5358 17.9596 83.2473 18.0326 82.1978 18.174 81.232 18.1507 80.2707 18.1572 78.8809 18.0621 78.1346 18.0768 76.8942 17.9211 75.6152 18.0482 74.5002 18.0038 73.3253 18.0463 72.4478 17.9992 71.273 17.792 70.2944 17.522 69.3818 16.7425 68.5027 16.1154 67.6627 15.7578 66.8593 15.0629 65.7431 14.0817 64.4415 13.2841 63.8196 12.7994 63.147 12.4155 62.7931 11.7264 62.1258 10.6091 61.9178 9.5139 61.966 8.5367 61.8403 7.8124 61.8153 7.3129 61.7421 6.5608 61.4396 6.057 60.9605 5.3212 60.1444 4.4572 59.4171 3.5943 58.8398 2.917 58.2149 2.3202 57.31 1.9459 56.913 1.543 56.6448 1 55.5464 1.4907 55.0428 2.5185 53.9698 2.8738 53.0629 3.0867 52.6089 3.438 52.1726 3.9398 51.4761 4.3189 50.5472 4.4841 49.9872 4.5854 49.4505 4.9604 49.1204 5.0746 48.6685 5.3136 48.6413 5.4544 48.6379 5.8623 48.3501 6.1616 47.9577 6.7622 47.6011 7.3204 47.1384 7.7564 46.4648 8.2874 45.5322 8.7705 45.1571 9.3619 44.7363 10.2207 44.2875 10.9308 43.8214 11.6886 42.8191 12.2836 42.0135 12.9389 41.3774 13.4632 40.83 13.9113 40.3271 14.0583 40.024 14.5404 39.6062 15.5658 38.3196 16.0968 37.5152 16.3638 37.1026 16.3916 36.824 16.4406 36.3307 16.5876 35.9211 16.8108 35.5734 17.0031 35.3763 17.4324 34.9808 17.6444 34.6124 17.7477 34.2676 18.806 33.1297 19.3309 32.4968 19.9179 31.7982 20.1614 31.4292 20.2634 30.8064 20.452 30.3527 20.7301 29.9609 21.121 29.1816 21.5493 27.9737 21.8609 26.6618 21.9684 25.7182 21.9931 25.2044 21.7787 24.3758 21.366 23.4881 21.1221 23.0877 20.9737 22.4498 20.9796 21.9365 20.9743 21.4875 20.4944 21.2214 20.2342 21.1423 20.1648 20.9299 20.1422 20.7596 20.5923 20.4493 20.948 20.1838 21.2979 19.7048 21.5594 19.7198 22.0138 19.6872 22.6922 19.2433 23.2183 18.995 23.6432 19.07 23.9154 19.2133 24.3572 19.1167 25.1058 19.1414 25.571 19.13 26.1757 18.9226 27.0915 18.4941 27.8859 17.8973 27.9587 17.7242 27.7694 17.387 27.6487 17.1331 27.6325 16.7916 28.049 16.2895 28.4372 16.1733 28.7101 16.2306 29.0389 16.5004 29.3677 16.7919 29.7398 17.2105 30.2115 17.6691 31.3001 18.0061 31.7319 18.0383 32.1544 17.9213 32.337 17.7457 32.3221 17.4679 33.0651 17.1719 34.0688 16.741 34.6304 16.6417 35.1189 16.6939 35.5083 16.7485 35.8469 16.8684 36.151 17.0109 36.4743 16.9599 36.7152 17.1253 37.0829 17.1377 37.5715 17.1044 37.831 17.1622 38.1926 17.4739 38.7941 18.0365 39.0801 18.3077 39.7778 18.547 40.0699 18.7323 40.742 18.6945 42.2494 18.8503 42.946 19.047 43.5519 19.0108 44.1987 18.8026 45.4988 18.7495 46.158 18.6051 46.6552 18.593 47.3376 18.5332 47.4568 18.5089 48.2381 18.6825 48.7375 18.7558 48.9973 18.7067 49.4092 18.6966 49.8768 18.8775 50.1261 18.9569 50.1905 18.8699 50.276 18.6541 50.337 18.4385 50.6063 18.2396 50.6864 18.5799 50.8502 18.7469 52.7296 17.4608 52.9765 17.2197 53.2457 18.0041 53.7351 18.099 54.6746 17.8837 55.6582 17.7311 55.9052 17.5969 56.41 17.2426 56.873 16.9104 57.3361 16.7068 57.8221 16.5453 57.9803 16.1564 58.336 16.1263 58.8788 16.2199 59.8221 16.1755 60.5686 16.1144 61.3166 16.2459 61.9653 16.2087 62.525 15.9172 62.8261 15.7171 63.1481 15.4954 63.8361 15.0083 64.4801 14.4579 65.1898 13.992 65.7701 13.5499 66.5438 13.0819 67.3272 12.5709 67.7687 12.3464 68.5325 11.7931 69.2737 11.3045 69.9847 10.988 70.3421 10.9152 70.809 10.9679 71.4613 11.3156 71.8877 11.6685 72.8796 12.2002 73.3854 12.637 73.9744 13.1145 74.5451 13.6135 74.9386 14.0316 76.3394 14.297 77.3295 14.6361 78.9591 15.0027 80.2402 15.2707 81.8486 15.7658 83.2773 16.394 84.482 16.6001 86.0424 16.7329 86.9529 16.6466 87.9366 16.6226 88.2504 16.4868 88.4726 16.2245 88.7734 16.0035 89.2149 15.6718 89.8069 15.3796 90.4418 15.129 90.8977 15.1607 91.3231 15.2571 91.5502 15.4012 91.7372 15.5462 91.8168 15.8652 92.1651 15.9635 92.5535 15.9541 92.9333 15.9234 93.0516 15.9633 93.2599 16.001 93.671 16.055 94.1815 16.0426 94.6343 16.0529 95.067 15.8928 95.6165 15.7298 96.1569 15.5239 96.9557 15.2053 97.6015 14.9544 98.5685 14.3321 99.5506 13.9018 100.2378 13.4787 101.0129 12.9679 101.5814 12.5908 101.7953 12.3074 102.8702 11.6397 103.8043 10.9755 104.2349 10.7299 105.1833 10.3433 105.9368 9.9188 106.6096 9.2395 107.3627 8.6866 108.1402 8.3681 108.926 8.0711 109.635 7.5834 110.5372 6.9201 111.1489 6.4559 111.5859 5.932 112.0469 5.4075 112.3569 5.1222 112.6924 5.0283 113.0894 4.8265 113.5377 4.1096 114.004 3.3713 114.7289 2.4128 115.1149 1.9758 115.4785 1.4965 116.1151 1.2887 116.5443 1 116.6867 1.1465 116.8781 1.6978 116.9157 2.1671 116.6266 2.5378 116.2742 2.9312 115.8959 3.0261 115.5958 3.1616 115.6331 3.6098 115.355 3.873 115.261 4.1749 115.4168 4.5557 115.9956 4.9479 116.4337 4.4669 116.7216 4.0535 116.9659 3.8124 117.1169 3.6592 117.4488 3.4156 117.8518 3.5772 117.9071 3.6613 117.9421 3.8955 117.9584 4.2374 118.0151 4.4925 118.1382 4.7463 118.301 4.8705 118.5627 5.0138 118.5661 5.2705 118.7405 5.4374 118.9517 5.7099 119.1052 5.8775 119.2892 6.0226 120.028 6.1969 120.9183 6.2607 121.297 6.1874 121.5302 5.9254 121.8345 5.8537 122.0081 5.9777 122.2068 6.2721 122.4134 6.3525 122.9226 6.3832 123.2911 6.3312 123.822 6.3827 124.2555 6.3721 124.4284 6.3679 124.5258 6.2156 124.9031 6.0782 125.282 6.0047 125.4314 6.0226 125.8952 5.8404 125.9971 6.0943 125.9453 6.2666 126.0099 6.3936 126.0844 6.2846 126.2378 6.2594 126.4101 6.2339 126.7987 6.1176 127.041 5.5771 127.1249 5.2972 127.2591 4.8021 127.5949 4.7084 127.7006 4.6844 127.8324 4.7454 127.7518 5.1324 127.751 5.218 127.7779 5.5591 127.846 5.7288 128.0628 5.7876 128.1821 5.7635 128.3541 5.7378 128.4527 5.7354 128.6132 5.7742 128.8309 5.8544 128.9412 6.0227 129.0032 6.4917 129.2534 6.7207 129.4904 6.6081 129.941 6.3193 130.5466 6.0475 131.1302 6.0763 131.2528 6.2019 131.028 6.5918 130.8788 6.8097 130.7212 7.1127 130.6567 7.1997 130.7043 7.6264 130.9173 8.1772 131.1282 8.5354 131.4325 8.5707 131.7761 8.4768 132.1549 8.4037 132.3929 8.2267 132.619 8.1144 132.6961 8.2194 132.7417 8.5819 132.9884 9.3029 133.3042 9.3807 133.6368 9.1589 133.678 8.9865 133.786 8.8343 133.9135 8.6175 134.2437 8.1817 134.6117 8.1086 134.9367 8.1221 135.3251 8.1127 135.1339 8.4592 135.137 8.5878 135.3013 8.6693 135.9041 8.505 135.8032 9.0631 135.2025 9.6551 134.9769 9.7891 134.4992 9.7149 134.328 9.9118 134.4423 10.3364 134.5415 10.3771 134.6597 10.4169 134.9001 10.5607 135.02 10.686 135.7531 11.2882 135.9397 11.4119 136.234 11.5974 136.5444 12.21 136.4596 12.4471 136.4963 12.7458 137.3259 13.2812 137.4567 13.2994 137.533 13.2548 137.9535 13.2659 138.4017 13.5332 138.5001 13.6377 138.5056 13.9798 138.4522 14.1948 138.7836 14.5932 138.8942 14.7616 139.3956 15.9039 139.4834 16.0087 139.6035 16.2408 139.9051 17.0676 140.0137 17.0436 140.3166 17.0148 140.3197 17.143 140.4214 17.5038 140.7722 18.6927 140.751 19.8052 140.6647 19.8714 140.2376 20.2455 140.1286 20.3763 140.1435 20.5469 140.2201 20.7377 140.364 20.8623 140.5486 20.9007 140.7982 20.8733 140.9261 20.8915 141.2518 20.9263 141.4863 21.498 141.4894 21.6261 141.5173 22.331 141.5801 23.0781 141.6791 23.2039 141.7813 23.4579 142.2342 24.1525 142.7565 24.3966 143.224 24.5989 143.4548 24.8928 143.6631 25.1442 143.9136 25.2663 144.1862 25.431 144.3193 25.5346 144.528 25.8074 144.7155 26.1878 145.1397 26.3485 145.4819 26.7466 145.7669 27.0815 146.1964 27.7982 147.3356 28.6899 147.7402 29.0224 148.5335 29.3664 148.9058 29.5716 149.3168 29.6255 150.1006 29.9056 150.3396 29.9853 151.4591 30.1935 152.0653 30.1574 152.4554 30.1266 153.2204 29.958 154.5334 29.2205 154.5684 30.2462 154.8602 30.1963 155.0771 30.1485 155.5409 30.0729 155.7256 30.1112 156.1817 30.1642 156.4167 29.9662 156.7938 29.8284 156.9682 29.8887 157.1136 30.2912 157.2043 30.5244 157.3797 30.8407 157.516 31.201 158.0631 31.701 158.4561 32.1188 158.568 32.2229 159.085 33.0231 159.33 33.4877 159.4401 33.6346 159.5727 33.8237 159.9799 34.3911 160.6949 35.3575 161.7313 35.9522 162.2897 36.4949 163.2496 37.1343 164.0574 37.6279 164.2748 37.6009 164.5111 37.4669 164.6718 37.3989 164.6695 37.1853 164.7197 36.8418 164.8487 36.7745 165.2646 37.1493 165.6241 37.2689 165.9753 37.6026 166.2387 37.81 166.4776 38.0179 167.099 38.3023 167.7067 37.5606 167.7128 37.1541 168.3535 36.2403 168.3994 35.4909 168.6914 35.4625 168.872 35.3512 169.1734 35.0444 169.1489 34.9168 169.253 34.4866 169.4078 33.9484 169.7625 33.5335 170.134 32.9257 170.3268 32.7714 170.6606 32.6992 171.1835 32.8789 171.3372 32.9607 171.4254 33.0867 171.8762 33.7817 171.7338 34.6189 171.5789 35.2641 171.7343 35.4099 171.6691 35.4756 171.4445 35.6524 171.4048 36.1021 171.2852 36.2697 170.7974 36.951 169.8186 38.4072 169.5414 38.6063 169.3705 38.8031 168.9503 39.1552 168.8815 39.3496 168.751 39.7161 168.7429 39.9299 168.578 40.5971 168.6379 40.9803 168.9621 41.8493 169.1447 42.3222 169.2401 42.5695 169.4955 43.0978 170.3208 44.1253 171.1976 45.0663 172.6065 45.8872 173.509 46.2503 175.0463 47.0899 177.8794 47.6198 178.9086 47.7017 180.1094 48.3995 180.7224 48.8764 182.2065 49.9522 182.3707 50.1298 182.7664 50.5588 183.1382 50.849 183.5461 51.4378 183.6484 51.54 183.9852 51.8762 184.6177 53.0583 184.8796 53.2229 185.6667 53.9734 186.3877 54.405 187.8046 55.2472 189.7093 55.8855 190.7875 56.458 191.3455 56.9787 191.9706 57.5195 192.6048 57.996 193.4884 58.6801 193.929 59.1826 194.1949 59.7321 194.6015 60.15 195.0603 60.4167 195.8567 60.9961 196.2862 61.6057 196.4955 61.8423 196.9345 62.3383 197.4669 63.3304 197.7012 64.0089 198.6806 65.2466 200.911 67.1386 202.7172 68.6768 204.4291 70.4741 205.3707 71.3495 206.3748 72.052 207.2449 72.3942 208.3432 72.5816 209.4437 72.4267 209.9092 72.3083 210.2099 72.0873 210.4167 72.0609 210.5532 71.8653 210.7363 71.7323 210.834 71.5804 211.0847 71.7239 211.1722 71.9358 211.5229 72.355 211.4724 72.4631 211.2326 72.5758 210.847 72.7988 211.0029 73.2014 210.9965 73.5865 211.1842 73.8811 211.319 74.2842 211.6413 74.8537 211.7929 74.9569 212.6027 75.6642 212.8555 75.8931 213.1949 76.163 213.9997 76.5499 215.107 76.7795 217.2849 77.6246 219.1007 78.222 220.012 78.4995 220.6305 78.5486 221.1611 78.4717 221.84 78.9155 222.4717 79.4236 222.8553 79.8844 223.5016 80.4247 224.0849 81.1161 224.5091 81.384 225.457 81.8529 227.8459 83.1633 229.0016 83.8623 229.8545 84.483 230.6614 85.0622 231.6403 85.3807 232.9666 85.6478 235.0019 85.7482 236.9441 85.8511 238.2845 85.6047 238.9211 85.5252 239.2805 85.6447 239.6165 85.7865 240.0632 85.9894 240.3359 86.1537 240.5444 86.2986 240.9314 86.1393 241.217 86.2823 241.9644 86.4778 242.2773 86.3422 242.6703 86.6319 243.3867 86.6572 243.3882 86.8499 243.3151 87.0011 243.503 87.2958 243.5274 87.6375 243.5898 88.256 243.8132 88.9134 244.1021 89.5264 244.5925 90.5624 245.011 91.1509 245.4831 91.7595 245.7385 92.4161 246.3542 93.0213 247.5664 93.9758 249.51 95.361 250.1023 95.9667 251.1979 97.0521 252.3677 97.9003 253.8572 98.4415 255.5964 98.9554 257.4617 99.1882 258.7713 98.9856 259.0919 98.7 259.4375 98.4563 259.6298 98.2807 259.9239 98.4446 260.2274 98.5658 260.3522 98.8833 260.5922 99.1343 260.7 98.9605 260.9362 98.8265 260.9656 98.6121 261.0045 98.2263 261.2327 98.1993 261.3486 98.0469 261.5747 97.9346 261.7018 98.5729 261.7483 98.8496 262.1931 99.7582 262.1109 100.1022 262.127 100.5446 262.196 100.8698 262.3072 101.188 262.4112 101.7414 262.6314 102.0566 263.3327 102.7882 263.4242 103.1706 263.7864 103.6323 264.0477 103.7542 264.3081 103.7479 264.2792 103.984 263.9764 104.1197 263.9352 104.3983 264.3085 104.6461 264.8867 105.0167 265.5394 105.386 266.5499 105.5752 267.0049 105.5856 267.0602 105.6698 266.5869 106.0234 266.4392 106.2834 266.7552 106.3829 266.9402 106.5494 267.0141 107.2959 266.6784 107.3894 266.3672 107.5038 266.1063 107.3819 265.9928 107.0855 265.4387 106.8421 265.0544 106.3599 264.3216 106.634 264.7071 107.1807 264.6293 108.0376 265.5437 108.3364 265.7411 108.6949 265.0726 109.0105 264.9742 109.6756 264.89 110.0413 264.9499 110.3432 265.0292 110.7434 265.3403 111.5268 266.0338 112.4724 266.8269 113.479 267.7075 114.8265 268.6012 116.0236 268.93 117.3198 268.9866 119.3494 268.9181 122.7078 269.0537 123.8225 269.1698 124.7755 269.4645 125.6258 269.9641 127.0653 271.1157 129.2608 272.4113 130.7049 273.8414 131.6535 275.0593 131.9665 275.4378 132.0855 275.4215 132.4068 275.1755 132.6905 275.2339 133.0099 275.4508 133.197 275.6107 133.8773 275.6343 133.9688 275.7368 134.366 275.9787 134.681 276.0053 135.1291 276.2164 135.509 276.4358 135.8886 276.4815 136.0222 276.6162 136.4185 277.4233 137.019 277.5491 137.1466 277.9387 137.5411 278.4896 138.2119 279.0408 139.0112 279.2647 139.5743 279.3862 139.8791 279.5799 141.8632 279.868 142.2194 280.1839 142.3186 280.5816 142.1381 280.7958 142.0902 281.0773 142.0621 281.2217 142.2082 281.349 142.6328 281.3402 143.1461 281.0395 143.2602 280.792 143.373 280.6813 143.7393 280.5102 143.9357 280.3111 144.1756 280.5431 144.4267 280.7258 144.8283 280.9774 144.9935 281.1967 145.1591 281.2511 145.6496 281.2276 146.0134 281.1595 146.5068 281.0473 146.809 280.6484 146.8186 280.4407 146.8237 280.1062 147.0037 280.0136 147.0904 279.9842 147.3282 279.9554 147.8827 280.1176 148.4347 280.1675 148.6711 280.2616 149.1151 280.3392 149.6906 280.1547 150.2083 280.2186 150.6558 280.1933 150.7706 280.1608 150.9135 280.0737 151.123 280.0352 151.2161 280.0497 151.3527 280.0626 151.4718 280.0302 152.0071 280.0527 152.5197 280.0578 152.7332 280.495 153.4285 280.8504 153.8259 281.408 154.6678 281.7437 155.1298 282.1321 155.5694 282.4919 156.1594 283.2533 156.8463 284.5572 157.5205 284.9907 157.6172 285.2658 157.7815 285.432 157.9484 285.4801 158.1826 285.3423 158.3141 285.4601 158.7817 285.5256 159.0432 285.6513 159.5467 285.797 159.8318 286.1258 160.4757 286.3389 160.8341 287.0148 161.6087 288.0757 162.5881 289.1053 163.5895 289.8185 165.026 290.3189 166.7029 290.692 167.5275 291.3181 168.4532 291.6398 168.7894 292.5163 169.707 293.6104 171.3052 294.374 172.527 295.0808 173.7069 296.2615 174.7901 297.8866 175.7773 299.1819 176.5369 299.7125 176.5882 300.2568 176.2119 301.1402 175.9983 302.2241 176.0363 303.7836 176.4901 304.495 176.8793 305.3541 177.5427 305.8911 177.8506 306.8731 178.0833 307.9587 178.2067 312.2132 180.2209 313.1065 180.9689 313.9357 181.7184 315.3081 183.1607 316.2736 184.142 317.0933 184.4858 317.0478 185.4705 317.0193 186.1766 317.3715 186.8949 317.4072 187.5994 317.085 188.2699 316.9552 188.8502 317.2196 189.5706 317.4928 190.0772 317.9351 191.1142 318.3324 191.9382 318.6584 192.5503 318.8799 192.8017 318.7169 193.2119 318.8212 194.1285 319.0822 195.7043 319.1175 195.8167 319.2349 196.192 319.3416 197.2157 319.624 198.2351 319.7723 199.0865 320.1547 199.74 320.2176 199.8835 320.3576 200.2055 320.7434 200.5383 321.0033 200.9595 321.4644 201.3333 321.6871 201.627 321.8987 201.9964 322.1135 202.2154 322.3544 202.3808 323.0929 203.0043 323.481 203.4441 323.8455 203.7771 324.1229 204.0272 324.7021 204.3337 324.8564 204.529 325.4811 205.3198 326.2709 205.7495 326.6371 206.147 327.4401 206.8117 329.0344 207.9491 330.5799 208.724 332.0542 209.2873 332.9325 209.4161 333.5869 209.5285 334.2195 209.2783 334.7622 209.2864 335.0953 209.1928 335.5337 209.3962 336.0868 209.9388 336.4412 210.2935 336.9461 210.6235 338.3122 211.232 339.474 211.4177 340.1751 211.8071 340.2295 211.9448 340.3592 212.2733 340.6361 212.5014 340.9557 212.7505 341.434 212.9526 341.8831 213.1555 342.1947 213.4902 342.4925 213.8249 342.8394 214.3486 343.1308 214.7076 343.5358 214.9542 343.9622 215.222 344.1762 215.6015 344.2481 215.8137 344.4453 215.9372 344.6444 216.1674 344.6669 216.2996 344.6946 216.4657 344.7434 216.6333 344.7753 216.7417 345.0484 216.8204 345.4438 217.1103 345.5964 217.1494 345.7526 217.3379 345.8534 217.456 346.3082 217.9874 346.8552 218.2735 346.9119 218.4217 347.2201 218.628 347.613 218.8112 347.9018 219.1247 348.0894 219.2701 348.4428 219.5821 348.5214 219.7725 348.6271 220.0694 348.7687 220.2154 349.8958 221.2788 351.3527 222.0346 352.3727 222.63 354.1944 223.1635 356.3389 224.1809 357.8071 225.0647 360.0585 225.9727 361.7038 226.9167 362.5519 227.1313 363.2458 227.3768 363.7967 227.5718 364.3696 227.7076 364.7448 227.8268 366.3534 228.1303 368.4962 228.5066 371.0446 228.1673 371.8242 227.9563 372.0801 227.8667 373.8344 234.2923 374.1841 234.8921 366.3365 236.6983 363.2335 236.7079 363.0893 241.5167 363.682 244.6844 363.9362 244.8907 361.5704 251.3918 355.8769 255.5437 347.7696 269.0405 329.7964 269.6567 324.1171 267.1634 304.8744 278.7425 300.2596 284.3994 289.1595 290.3214 285.9036 299.5409 Z" id="51004"/>
<path d="M 650.8034 273.8357 642.1034 274.2311 636.8648 271.2518 637.6262 268.25 635.1292 258.0448 633.1982 253.0135 630.8237 248.2195 628.9401 245.619 629.9701 244.3262 631.0699 244.9319 632.6856 244.3481 635.7915 242.1856 634.4099 237.6004 633.2479 236.2385 637.2597 230.6878 642.3331 227.3758 644.2845 224.6659 648.9188 225.8703 653.2118 221.9561 650.7238 212.9834 657.8949 206.9614 654.6752 197.4466 648.0895 187.9919 640.5408 183.6882 635.2044 182.4531 635.3104 182.3448 635.5038 182.0839 635.3313 181.9808 635.1248 182.0288 634.9722 181.9893 634.7793 181.9297 634.702 181.6965 634.819 181.4587 634.5698 181.1652 634.4083 181.0835 634.2326 180.9596 634.0166 180.601 633.7009 180.1808 633.4282 180.0163 633.4149 179.6748 633.2512 179.4006 633.187 179.1458 633.3027 178.9716 633.4308 178.7763 633.4531 178.4767 633.4519 178.3054 633.3729 177.88 633.3593 177.5381 633.3802 176.9604 633.3126 176.791 633.5582 176.2721 633.8295 176.1374 634.0229 176.1115 634.3454 175.89 634.7116 175.753 635.1529 175.5075 635.3263 175.5248 635.6615 175.4101 635.7563 174.9161 635.7866 174.6159 635.6881 174.2763 635.6396 173.807 635.4345 173.5555 635.1746 173.583 634.9152 173.5464 634.7311 173.4009 634.9634 172.5404 635.3315 172.3394 635.6979 172.2021 636.0409 171.959 636.2657 171.3337 636.6082 170.727 637.0786 170.0318 637.3493 170.1109 638.2677 170.0251 638.3856 170.1718 638.6573 170.1868 638.8738 170.1176 639.1744 169.7686 639.28 169.6162 639.5478 169.1398 640.073 168.1652 640.4905 167.8131 641.1733 166.0656 641.4849 165.7376 641.968 165.2342 642.529 165.3276 642.9837 165.3169 643.169 165.3981 643.4169 165.5208 643.6128 165.4734 643.7927 165.2124 643.8695 165.0824 644.0628 164.9283 644.4193 164.9199 644.5694 164.8736 644.8071 164.9107 645.2174 164.8155 645.6512 164.9335 645.9203 164.8416 645.9526 164.6269 645.8963 164.3718 645.6879 163.9918 645.407 163.9343 645.1481 163.8977 644.8894 163.8611 644.5648 163.7619 644.2172 163.4493 643.8918 163.3074 643.6734 162.949 643.9747 162.9849 644.2783 162.9991 644.8741 163.1133 644.7973 162.9011 644.5586 162.693 644.3935 162.4619 644.6748 162.4339 644.8599 162.3868 645.461 162.1586 645.4935 162.051 645.4162 161.8177 644.8859 161.6804 644.5849 161.6661 644.3128 161.6298 643.8832 161.6827 643.754 161.7285 643.5793 161.6685 643.6002 161.3048 644.0414 161.059 644.5162 161.1122 645.1212 161.162 645.6949 160.9985 645.9846 160.8849 646.3198 160.7701 646.8249 160.5231 646.9416 160.2636 646.6291 159.9933 646.3147 159.9793 645.9569 159.9237 645.7731 159.7995 645.5987 159.6327 645.811 159.0504 645.9643 158.9826 646.0709 158.8733 646.2962 158.6326 646.7719 158.6 647.0735 158.4006 647.1467 158.0142 647.5443 157.9616 647.7278 157.8292 647.6098 157.6824 647.1654 157.6929 646.9725 157.7402 646.8856 157.6568 646.9717 157.4625 647.1835 157.2007 647.3369 157.1544 647.6819 156.8898 648.0587 156.731 648.2624 156.5766 648.7256 156.587 649.0409 156.6435 649.1495 156.6197 649.3208 156.4448 649.1459 156.1281 648.9618 155.9828 648.7864 155.7733 649.0026 155.4687 648.9901 155.3835 649.1631 155.2726 649.4116 155.3095 649.8215 155.3212 650.2012 155.633 650.289 155.631 650.9692 155.9354 650.9029 155.3811 650.5222 155.0268 650.068 154.7167 650.2485 154.5842 650.5436 154.8123 650.9094 154.975 651.1492 154.9906 650.9511 154.5888 650.8753 154.42 650.9917 154.1604 651.4228 153.4875 651.5075 153.4641 651.7222 153.3308 652.0991 153.1724 652.7546 152.3015 652.9605 152.2325 653.2192 152.2691 653.2955 152.46 653.296 152.6949 653.3726 152.7787 653.8016 152.2554 654.3621 151.7504 654.6723 151.5935 654.6756 151.957 654.5264 152.4095 654.4533 152.8173 654.4981 153.0088 654.5847 153.1991 654.6935 153.3033 654.8348 153.1932 654.9617 152.8052 654.8959 152.5077 655.2484 151.7725 655.5846 151.9139 655.8306 151.9724 655.9928 151.9686 655.9813 151.4771 656.4647 151.3375 656.4865 151.0161 656.3346 150.8915 656.4621 150.6534 656.8637 150.7508 658.3025 151.1872 658.8519 151.2383 659.1436 150.9747 658.6028 150.8379 658.1906 150.7194 657.9642 150.5966 657.8539 150.4279 657.8749 150.1923 658.145 150.1433 658.4354 150.1578 658.6645 150.1737 659.3151 150.5647 659.5623 150.5588 659.366 150.2426 658.6921 149.6385 658.9502 149.4188 659.2071 149.0278 660.0642 149.3711 661.1773 149.5371 662.2387 149.7473 661.7267 149.3532 661.6498 149.141 661.7996 148.8383 662.7822 148.6442 663.0643 148.6589 663.5193 148.99 664.0054 149.064 664.0464 148.5502 663.9801 148.4446 664.2799 147.9461 664.6911 147.7865 664.8725 147.6967 665.2156 146.8977 665.4183 146.572 666.0097 146.1521 666.4181 145.9926 667.0787 145.7847 667.9628 145.5929 668.1446 145.5244 669.2389 145.7764 669.6377 145.8738 670.1561 145.6265 670.3296 145.6438 671.1277 145.4115 671.861 145.2658 672.2597 144.786 672.4289 144.6321 672.5491 144.6511 672.6042 144.8419 672.4438 145.038 672.4321 145.2306 672.5114 145.5494 672.8457 145.499 673.0153 145.1314 673.1975 144.6139 673.2841 144.5691 673.5766 144.7978 673.6097 145.0533 673.8261 145.2195 673.8461 144.9408 673.8234 144.6422 673.8663 144.4272 673.9731 144.4461 674.116 144.5282 674.4522 144.9052 674.8736 144.9594 674.8293 144.6399 674.4826 144.3913 674.3937 144.2223 674.4056 144.0514 674.5121 144.1769 675.239 144.6516 675.4235 144.6899 675.6954 144.94 675.7944 145.3014 675.8079 145.8781 675.7541 146.0931 675.7129 146.5004 675.8782 146.6033 676.0498 146.3211 676.2309 146.1032 676.3938 146.1421 676.5784 146.2873 676.7086 146.4128 676.7945 146.5389 676.7001 147.0544 676.8204 147.3079 677.1204 146.5954 677.1824 146.2944 677.5626 146.6277 677.8227 146.7068 677.9827 146.5964 678.1458 146.4216 678.3927 146.159 678.7035 145.9167 679.3074 145.6884 679.7304 145.7856 680.4652 145.918 681.0584 145.9252 682.6694 145.8661 682.9597 145.8804 683.6192 145.5226 683.9313 145.3229 684.47 145.1607 684.9132 145.1075 685.0829 144.9753 685.2654 144.6927 685.1482 144.5674 684.8241 144.7031 684.5431 144.6458 684.3147 144.5445 684.1738 144.3122 684.3342 144.1162 684.614 144.0241 685.0463 144.078 685.3709 144.0917 685.8578 144.0802 686.5697 143.807 686.8485 143.7791 686.9996 143.5188 687.1271 143.0667 687.0173 142.9198 686.7822 143.0966 686.4156 143.3616 685.822 143.5679 685.3904 143.6636 685.2799 143.1533 685.2249 142.962 684.9207 142.9264 684.5112 142.7009 684.3783 142.4902 684.304 142.3851 684.4846 142.0176 684.7873 141.9891 684.9062 142.3068 685.1133 142.5156 685.3519 142.7026 685.794 142.4995 685.8994 142.1124 685.6952 141.9036 685.488 141.6944 685.7348 141.5604 685.9627 141.4055 686.383 141.2887 686.5221 140.9646 686.2377 140.7576 686.4333 140.5817 687.4988 140.065 687.6728 140.3388 687.8796 140.3126 687.9859 140.075 688.3852 139.8516 688.5454 139.6555 688.4988 139.3783 688.38 139.189 688.6057 138.8204 689.144 138.7433 689.5761 138.669 689.7603 138.8146 690.0756 139.2131 690.2183 139.4024 690.9545 139.8124 691.3682 139.9737 691.8202 140.0915 692.1671 140.2542 692.6207 140.3076 692.8897 140.0876 693.2141 139.9732 693.5378 140.0296 693.9289 140.0418 694.3707 140.0314 694.6289 139.8112 694.8539 139.5282 695.1673 139.3926 695.6301 139.2748 695.9006 139.2471 696.1808 139.1547 696.5914 138.9741 696.8398 138.9041 697.0417 138.6643 697.0959 138.4704 697.1705 138.1481 697.4707 137.8841 697.5143 138.0545 697.4204 138.5913 697.3256 139.085 697.2947 139.4706 697.0276 139.7547 696.8559 139.93 697.341 139.8545 697.4814 139.7225 697.7073 139.4823 697.7824 139.3951 697.9637 139.1771 698.4063 139.2094 698.5795 138.8845 698.6106 138.7342 698.7724 138.6021 699.1267 138.6152 699.5179 138.841 699.5737 138.9679 699.5641 139.1175 699.2186 139.3612 699.0678 139.5145 699.1986 139.6395 699.5433 139.5886 700.3407 139.2279 700.8061 139.3238 701.0108 139.319 701.1402 139.2732 701.658 139.1115 701.8089 138.7443 701.9909 138.6759 702.5721 138.2772 702.6479 138.1045 703.3497 137.9598 703.3173 138.1742 703.5772 138.4676 704.8079 137.9682 706.6138 136.5574 706.2318 135.5828 707.2478 135.5802 707.6537 134.9507 707.9218 134.5808 708.0833 134.1923 707.9387 133.5971 707.5926 133.3485 707.5582 133.1356 708.4808 132.1944 709.1258 131.4524 710.0144 130.0846 710.3656 129.0498 710.7367 127.7371 710.5403 127.4214 710.0646 127.3253 710.1293 127.1314 710.3432 126.7204 710.146 126.2546 710.1334 125.8272 710.4074 124.6875 710.6514 124.0832 710.8057 124.1866 711.0748 124.4368 711.1959 124.6049 711.5832 124.553 712.2921 123.7025 712.9019 122.5765 715.4345 119.1386 717.4539 117.0814 718.2698 116.3568 719.5558 116.3906 719.7874 116.8556 720.0399 117.6406 719.8458 117.8802 719.8058 118.3302 719.7327 118.7169 719.4091 118.7673 719.1707 118.9225 719.4891 119.6846 720.6588 120.213 721.7412 120.6579 723.0867 121.5241 723.9751 121.9736 724.2655 122.1163 724.308 121.8591 724.3831 121.6648 724.588 121.5532 724.7941 121.4839 724.996 121.3723 725.0158 120.9658 724.9086 120.9256 725.165 120.5133 725.327 120.2741 725.8563 120.2616 726.1069 120.8543 726.1309 121.0892 726.0133 121.3911 725.9394 121.6496 725.8874 122.0568 725.8138 122.4221 725.8033 122.5508 726.5057 122.7908 726.8315 122.9327 726.8439 123.0179 726.9632 123.2288 726.9617 124.8752 726.6318 125.9093 727.35 126.8116 728.171 126.9849 728.5828 127.082 728.8337 127.3324 728.7822 127.7401 728.7724 127.9113 728.925 128.1644 729.2298 128.4564 729.7261 128.637 729.9743 128.674 730.1159 128.6924 730.4796 128.3202 731.0525 128.2426 731.5619 128.1665 732.5414 127.7371 732.4927 126.9048 733.1531 127.0386 733.5292 126.7303 733.9172 126.486 734.2201 126.5859 734.7731 126.9151 735.2059 126.9904 735.5941 126.7462 735.8542 126.7184 736.0585 126.9276 735.7835 127.5542 735.8064 128.1949 735.8307 128.4506 735.593 128.7558 735.2275 128.9354 734.9911 129.0691 734.7873 129.2239 734.993 129.4968 735.7521 130.0989 735.6902 130.6349 735.5209 131.1307 735.3931 131.4756 735.1371 132.2514 735.1609 132.4647 734.9815 133.1103 734.928 133.4322 734.8886 134.0316 735.202 134.0029 735.418 133.9123 735.5772 133.6735 736.4672 134.294 736.7628 134.9925 737.0236 135.2218 737.2837 135.7712 737.5253 136.1932 738.1136 137.1202 738.749 138.7086 738.9468 139.0675 739.2695 139.2309 739.8443 139.3455 740.1344 139.1251 740.5454 139.0513 740.9667 138.9773 741.5361 138.7499 742.0652 138.7375 742.3682 138.8375 742.7481 138.9354 743.1716 139.2887 743.518 139.4305 743.8862 139.4646 744.2956 139.455 744.3921 139.1532 744.5618 138.8928 745.1036 138.7305 745.3533 139.0665 745.1286 139.585 744.4819 139.6856 744.1811 140.0134 743.9435 140.2114 743.9146 140.6825 744.1953 140.7401 744.7776 140.3841 745.1213 140.1838 745.6711 140.0213 746.502 139.5954 746.7617 140.017 747.1299 140.0511 747.2159 139.8781 747.4062 139.1251 748.6098 139.7382 748.9878 140.0929 749.4332 140.3602 749.0389 141.2462 748.9853 141.5894 749.011 141.9951 749.7152 142.2994 750.0238 141.7363 750.3562 141.3862 751.642 141.0568 752.1385 141.3657 753.4479 141.3777 753.9098 141.2173 754.2142 141.381 754.4204 141.6543 754.6812 142.0115 754.8906 142.5411 755.118 142.8352 755.2081 143.389 755.1559 143.6466 755.0596 143.8625 754.8356 144.4023 754.8037 144.6385 754.5028 144.7524 754.3418 145.1408 754.2375 145.5709 753.8068 145.8164 753.4289 146.1672 752.9549 146.3706 752.053 147.0549 751.8679 147.102 751.2221 147.4804 751.0073 147.7422 750.8901 147.9586 751.2784 147.9495 751.7735 147.7455 752.0432 147.6751 752.5537 147.77 753.2225 147.6902 752.724 149.241 752.607 149.7142 752.3701 150.062 752.1885 150.3652 751.4549 150.7462 751.0562 150.9906 750.908 151.2504 750.8898 151.7213 751.064 151.9954 751.3422 151.7321 751.8909 151.3986 752.3767 151.1305 752.7442 151.2718 753.0814 151.4563 753.2213 151.6452 753.2782 151.7934 753.2997 152.0496 753.3125 152.4771 753.1862 152.9928 752.6486 153.3263 752.2701 153.5275 752.0437 153.7468 752.3701 153.9315 752.619 153.8829 752.8226 153.9422 752.922 154.2176 753.0555 154.8131 752.8533 155.1387 752.5523 155.4663 752.4025 155.7907 752.6303 156.0844 752.716 155.9969 752.9422 155.9916 753.3 156.1545 753.4615 156.2576 753.6801 156.3806 753.9592 156.0319 754.1203 155.7503 754.3885 155.4876 754.4529 155.2934 754.5718 155.2479 754.6892 155.2667 754.7548 155.3505 754.9411 155.7951 755.647 156.3985 755.8076 156.4589 756.2995 157.2384 756.1385 157.4133 755.9996 157.8439 755.9165 158.1453 755.8318 158.981 755.8695 159.5574 755.9243 159.9624 756.0472 160.4513 756.1349 161.0051 755.9562 161.8002 755.7544 162.1685 755.4308 162.6674 755.4445 162.9027 755.6081 163.0698 756.1024 162.8231 756.3719 162.6241 756.7162 162.5519 757.128 162.6491 757.193 162.8188 757.1627 163.2255 757.1221 163.5473 756.9079 163.8301 757.148 164.3163 757.4509 164.416 757.8927 164.2988 758.3109 163.7545 758.5377 163.6637 759.5217 163.5337 759.8036 163.8693 759.9451 164.336 759.9826 165.0406 759.9838 165.5537 760.1798 165.3996 760.243 165.1417 760.4444 164.7734 760.7234 164.2964 761.0019 163.9053 761.1961 163.7935 761.7042 163.5679 762.0628 163.8804 762.1373 164.1137 762.1709 164.3052 762.162 164.6048 762.1435 165.0544 761.8208 165.1474 761.6806 165.4071 761.878 166.001 762.1137 165.5037 762.3814 165.3479 762.599 165.1932 763.0088 165.0981 763.2773 165.1986 763.4321 165.5582 763.5615 165.7479 763.7581 165.8501 763.9208 165.9745 764.5087 166.7729 764.5861 167.1347 764.5333 167.4782 764.5127 167.7564 764.5151 168.0774 764.6578 168.2661 765.0995 168.4908 765.3176 168.3789 765.6067 168.1157 765.8977 167.8094 766.2834 167.5866 766.3645 168.5466 767.014 168.4459 767.0453 168.5306 768.5997 168.1095 768.9869 167.8223 769.3018 168.093 769.7555 168.0397 770.207 168.0077 770.4899 168.1506 771.0199 168.1809 771.2989 168.0462 771.5251 167.5918 771.8054 167.7348 772.1304 167.8771 772.4559 168.1473 772.8044 168.4813 772.8187 168.9937 772.9907 169.1824 773.1849 168.8356 773.345 168.6182 773.636 168.4404 774.1302 168.0652 774.1741 168.2351 774.3915 168.4227 774.3843 168.8074 774.3206 169.1511 773.9764 169.6937 773.9562 169.8438 773.9362 170.1434 773.8313 170.659 773.8094 170.745 773.5521 171.0078 772.9493 171.1716 773.2111 171.6785 773.5148 172.1418 774.0944 171.5723 774.377 171.4802 774.6783 171.4945 774.7236 171.7284 774.7237 171.9635 774.6091 172.522 775.0921 172.2543 775.3826 171.6916 775.9942 170.8863 776.7133 170.2281 777.2505 169.7451 777.6946 169.5207 778.1682 169.6381 778.601 169.6066 778.9044 169.4923 779.5376 169.1356 780.1107 168.844 780.4569 169.1995 780.4171 169.6709 780.5364 169.8815 780.5691 170.0305 780.7449 170.4968 780.762 170.7346 781.0787 170.318 781.5971 169.9423 783.2576 169.3902 783.5801 169.1904 783.7283 168.6951 784.0713 168.4734 784.6554 168.0534 785.1948 167.9126 785.2248 167.7195 785.2792 167.5474 785.6382 167.9876 786.0056 168.1072 787.2152 168.0789 787.3311 167.6702 787.3288 167.3494 787.6612 166.7643 788.3938 166.3626 788.729 166.5897 789.1147 165.7898 789.7471 164.7059 789.9182 164.4028 790.1876 164.546 791.4416 164.5808 791.4965 164.4299 791.6875 164.1687 791.8706 163.9293 792.0752 163.7964 792.2701 163.706 792.5609 163.742 792.8983 164.0548 793.0393 164.1799 793.0512 164.3507 792.8253 164.6979 792.6976 164.8291 792.8829 165.4663 793.1453 165.8876 793.6427 165.7691 794.1077 165.9719 794.2798 165.9251 794.4422 165.8145 794.5586 165.6836 794.8518 165.5912 795.0806 166.0345 795.2014 166.3099 795.2662 166.5861 795.2139 166.7372 795.0854 167.0394 795.0338 167.2329 795.0332 167.5537 794.9917 167.8325 794.9841 168.0681 794.941 168.2827 794.9196 168.39 794.8783 168.5623 794.6525 168.9095 794.4594 169.1921 794.2875 169.4525 794.2156 169.7964 794.1733 170.1606 794.1843 170.2884 794.1966 170.5878 794.2953 170.6068 794.4678 170.5814 794.6172 170.3643 794.8734 169.9519 795.0582 169.8835 795.4888 169.638 796.0269 169.4545 796.4704 169.6364 796.7756 170.0571 796.9172 170.3104 797.0054 170.3296 797.2851 170.1091 797.5106 170.0824 797.7592 170.1407 798.4609 169.9961 798.788 170.3306 798.865 170.4356 798.5945 170.5915 798.3908 170.6391 798.0976 170.7314 797.5511 171.4922 796.7187 171.5117 796.5028 171.6028 796.4234 172.5237 796.5641 172.7558 796.826 173.3696 796.8934 173.5176 796.3566 174.578 795.8742 175.0165 795.2792 175.0518 794.6106 175.0247 794.4595 175.3705 794.5371 175.5181 794.561 175.8599 794.5173 176.0318 794.2931 176.3362 794.1966 176.5525 794.1549 176.8097 793.9938 177.0917 794.0053 177.241 794.0542 177.9667 794.0134 178.3953 793.9925 178.524 794.0464 178.6723 794.2838 178.5813 794.4768 178.534 794.6299 178.5945 794.8027 178.5905 795.1269 178.5829 795.2796 178.8357 795.3889 179.1967 795.3666 179.3895 795.281 179.4774 794.9051 179.7853 794.485 179.902 794.1105 180.5094 793.8967 181.0489 792.9503 181.8833 792.7571 181.9306 792.5182 182.0647 792.2941 182.2623 791.84 182.5293 791.4969 182.7727 791.2607 183.0133 791.2609 183.2487 791.0794 183.5734 791.2212 183.6128 791.445 183.3937 791.7144 183.1953 792.1036 183.2289 792.3748 183.3294 792.452 183.4558 792.315 184.079 792.3257 184.2069 792.3036 184.4001 792.5325 184.5015 792.7698 184.6453 792.9651 184.5768 793.1164 184.6801 793.4756 184.9067 793.7342 185.0506 793.7247 185.4354 793.8142 185.861 793.9242 186.008 794.0976 186.2607 794.7679 186.3731 795.3825 185.9097 796.0182 185.8948 796.3102 186.1016 796.2898 186.252 796.133 186.8329 795.982 186.8578 795.6365 187.2291 794.7113 187.6998 794.2803 188.0522 793.9922 188.5931 793.3679 189.0994 793.1344 189.8104 793.0045 190.0488 792.8024 190.2885 792.2748 190.7072 792.0583 190.9046 791.8756 191.0584 791.8446 191.209 791.8118 191.4021 791.9858 191.4408 792.2007 191.2007 792.4603 191.0233 792.8695 190.9924 792.8276 191.1433 792.5332 192.2188 793.0802 191.8214 793.4531 190.936 793.9243 190.2622 794.473 190.0571 794.6158 190.1179 794.9295 190.2387 795.2968 190.3583 795.5986 190.2871 795.7278 190.2414 796.0001 190.3849 796.2057 190.551 796.4216 190.5673 796.5407 190.5216 796.8862 190.4068 797.3625 190.6307 797.395 190.7581 797.3532 191.144 797.4304 191.3773 797.5488 191.4386 797.8976 191.559 798.0253 191.4488 798.3286 191.4417 798.6844 191.5406 799 192.0673 798.9045 192.0696 798.6998 192.2029 798.5059 192.3144 798.054 192.6881 797.7315 193.1233 797.2271 193.4986 796.7739 193.9366 796.5045 194.1355 796.638 194.7097 796.3377 194.9731 795.8534 195.1767 795.2905 195.3398 795.04 194.8753 794.8138 194.8806 794.3839 195.2539 793.7783 195.1826 793.4884 195.4248 793.446 195.5541 793.5008 195.959 793.72 196.3384 793.6563 196.4681 793.4951 196.6218 793.0959 196.738 792.8916 196.8709 792.7193 197.0247 792.5258 197.4995 792.6469 197.689 792.9943 197.8519 793.1969 197.8901 793.727 197.899 793.773 198.1757 793.8609 198.644 793.929 199.1555 793.7578 199.3518 793.5838 199.42 793.3787 199.5317 793.1555 199.9859 793.1035 200.1581 793.0272 200.4379 792.7589 200.6793 792.4696 200.686 791.8855 201.106 791.8967 200.8921 791.5437 201.3918 791.6523 201.5819 791.61 201.9461 791.5042 202.2053 791.2791 202.5951 791.0638 202.9424 790.8294 203.3969 790.7455 203.7835 790.5224 204.494 789.898 204.9792 789.4445 205.0539 789.1428 205.2322 788.6369 205.4364 788.0773 205.7486 787.6667 205.8226 787.2679 206.1739 786.9142 206.4175 786.5462 206.255 786.4362 206.1079 786.2195 205.942 785.9591 205.9481 785.4407 205.9817 785.4963 206.194 785.8225 206.3786 785.9432 206.8676 785.5761 207.1114 785.2121 207.3551 784.9755 207.5957 784.6415 207.9885 784.46 208.0781 784.1789 208.2343 783.5637 208.3132 782.666 208.2698 782.4383 208.211 782.3968 208.3619 782.5368 208.4441 783.2956 208.6827 783.5644 208.5695 783.8683 208.712 783.9754 208.7522 784.0639 209.0068 783.5172 209.7464 783.2689 209.7095 782.9121 209.9316 781.9995 210.6156 781.5122 210.8197 782.1089 211.0835 781.9824 211.7064 781.768 212.2031 781.6204 212.6129 781.7516 212.8877 782.02 212.8599 782.4205 212.936 782.7576 213.2489 783.2113 213.067 783.3167 212.9149 783.4996 212.6543 783.7359 212.4134 784.144 211.8693 784.4245 211.9269 784.9769 211.9997 785.1161 212.0392 785.0879 212.553 784.9391 212.8983 784.8107 213.0936 784.1752 213.6857 784.0257 214.117 783.8434 214.3991 783.3584 214.5815 782.529 214.8573 781.8588 214.9799 781.168 215.0174 780.6163 214.8594 780.0767 215.0003 780.1229 215.2559 780.3075 215.5294 780.7505 215.6045 781.0957 215.575 781.6575 215.7117 781.9483 215.6193 782.4036 215.5229 782.8022 215.3854 783.0189 215.4444 783.613 215.5802 783.8833 215.6595 784.4343 215.561 784.6269 215.4922 784.6808 215.4055 785.1363 215.3093 785.6339 215.6612 785.7203 215.8301 785.8727 215.9761 786.0902 215.9496 786.5232 216.1535 786.8059 216.4032 786.8056 216.5108 786.8055 216.6169 786.3949 216.5838 786.2986 216.6715 785.9332 216.9796 785.8577 217.0454 785.7634 217.4539 785.8615 217.7721 785.9613 218.0692 785.8236 218.671 785.6524 218.8673 785.2854 219.3251 785.18 219.712 784.8455 219.7412 784.6174 219.426 784.7534 218.632 784.8287 218.4376 784.9436 218.0076 784.8459 217.6891 784.6938 217.6711 784.3819 217.764 783.8967 217.9464 783.3452 218.2586 782.9286 218.6531 782.5738 219.0677 783.1662 219.0324 783.4577 218.9827 783.849 219.1019 784.1646 219.8706 784.1686 220.377 784.1165 220.7631 784.0201 221.0862 783.5575 221.2039 782.1522 223.3744 781.6391 224.0704 780.8945 224.5369 780.9518 224.8349 781.0715 225.2809 780.9147 225.646 780.6451 226.2744 780.3444 226.5164 779.9563 226.6324 779.7403 226.6161 779.308 226.7761 776.8834 227.6664 776.5315 228.8933 776.5197 228.9811 776.4385 229.5795 776.399 229.944 776.0415 230.1233 775.5567 230.2201 775.1679 230.0797 775.2516 229.9068 775.5222 229.6437 775.7576 229.4673 775.8866 229.1865 775.713 228.9339 775.313 229.1142 774.7753 229.5546 774.4942 229.7106 774.1161 229.6981 773.4877 229.3282 773.2491 228.9062 773.2251 228.5646 772.8664 228.3593 772.466 228.1765 771.9472 227.9533 771.6657 227.853 771.4238 227.0677 770.8714 226.76 770.5017 226.4268 770.36 226.1734 770.2388 225.535 770.0838 225.0469 770.3087 224.5286 770.4466 224.0552 770.3178 223.6989 770.2477 223.504 769.9435 223.0194 769.5759 222.8785 769.1241 223.1241 768.744 223.0262 768.3548 222.6505 768.1337 222.1856 768.1554 221.8643 767.8055 221.2312 767.7598 220.9759 767.0574 220.522 766.4496 220.0017 765.691 219.7632 764.8265 219.5267 764.0366 219.5453 763.3146 219.7335 762.5928 220.1564 762.0674 220.7886 761.6358 221.0982 761.4011 221.4242 761.4665 221.829 761.6399 221.9745 761.8686 222.0759 761.6329 222.3382 761.5019 222.5549 762.1558 223.2236 762.386 223.7499 762.3774 224.1591 761.8044 224.4503 761.6719 224.1648 761.608 224.0273 761.3907 223.7119 761.2296 224.122 760.6607 225.4925 760.6152 226.1671 760.512 226.8963 760.1795 227.3531 759.575 228.4667 759.5497 228.629 758.3495 228.8496 757.8189 228.5629 757.741 227.838 757.1754 227.5518 757.0773 227.1051 756.9455 226.5954 756.5217 226.5623 756.4396 226.9064 756.1931 227.404 756.1621 227.6824 755.0692 227.5799 754.6703 227.4824 754.1507 227.3238 754.1199 227.7091 754.4899 227.9571 754.9565 228.3521 755.1721 228.347 755.5838 228.5515 755.6147 228.7194 755.6387 228.8491 755.6212 229.4695 755.4284 229.9871 755.2054 230.5697 755.108 230.7214 754.624 231.0963 754.0545 231.4088 753.345 232.3662 753.2731 232.9451 753.0162 233.1007 752.3576 233.501 752.2067 233.6541 752.2678 233.7767 752.4803 234.2036 752.4738 234.7168 752.3446 235.2329 752.0461 235.6672 751.9595 235.712 751.7967 235.6944 751.6144 235.7415 750.2863 235.7086 748.977 235.6966 748.3407 235.797 747.6915 235.4491 747.0733 235.2923 746.6994 235.686 746.6627 235.8018 746.8192 235.9182 747.0123 235.8709 747.3477 235.8844 747.3831 235.9732 747.4239 236.0753 747.5539 236.2859 748.0866 236.8717 748.4455 237.3338 748.7189 237.5197 748.7183 237.8405 748.4514 238.1457 748.0744 238.5183 747.6199 238.2081 747.1432 237.9416 746.8071 237.8 746.4831 237.7004 746.3328 238.0034 746.141 238.3284 745.7941 238.401 745.4497 238.3446 745.1033 238.2032 745.0076 238.5476 745.1839 239.1634 745.4526 239.1571 745.5733 239.3038 745.5948 239.4315 745.4557 239.6274 745.2191 239.8679 745.0355 239.9791 744.8215 240.2622 744.5733 240.3535 744.533 240.8029 744.6527 240.9075 745.031 241.155 745.4309 241.1883 745.7677 241.4798 745.7286 242.1007 745.4288 242.5991 745.4115 242.7301 745.3881 242.8995 745.0071 242.6517 744.8162 242.4447 744.737 242.359 744.5842 242.1915 744.1834 242.2224 744.167 243.2486 744.0525 243.9143 744.0198 244.0223 743.9363 244.3016 743.5903 244.5237 743.5727 244.8208 743.5521 245.1661 743.3272 245.5558 742.6488 245.7857 742.4325 245.9831 742.5859 246.5139 742.4044 246.8171 742.0911 246.7392 741.3655 246.3072 741.117 246.1421 741.1893 245.9484 741.3414 245.8592 741.4033 245.6437 741.5213 245.3418 741.2947 245.0904 741.1526 245.2864 740.8962 245.6983 740.8544 245.9562 740.825 246.5125 740.7925 246.6293 740.6997 246.9641 740.4642 247.3546 740.3679 247.5705 740.406 247.7321 740.4331 247.8471 740.3281 248.1485 739.7887 248.6317 739.5749 249.0429 739.2216 249.5216 739.0817 249.3323 738.2785 248.9025 737.748 248.8505 737.2875 249.1822 737.0936 249.3149 736.7048 249.2813 736.6527 249.3509 736.542 249.4988 736.4682 249.7573 736.0704 249.9162 735.766 249.8806 735.466 250.1226 735.6606 250.268 736.1377 250.4276 736.3318 250.6369 736.4457 251.4039 736.5324 251.5941 736.7828 251.9514 736.7628 252.1232 736.1816 252.5214 735.6841 252.5331 735.2541 253.0135 735.1908 253.1645 735.1486 253.5076 734.6334 253.7762 734.0056 253.8981 733.68 253.6277 733.418 253.2276 733.1262 253.0422 732.8041 253.3706 732.7398 253.6925 733.0899 254.2188 733.0482 254.6046 733.5391 255.3412 733.7218 255.4223 733.8855 255.4826 734.1236 255.5409 733.9648 256.3787 734.7654 256.3599 734.6672 256.4904 734.3567 256.6259 734.0553 256.9324 733.4841 257.3304 732.9673 257.7488 732.5593 258.1647 732.2278 258.4288 731.578 258.1659 731.2751 258.0663 730.6537 258.4403 730.5423 258.5966 730.09 258.8209 729.5486 258.8765 729.098 259.0582 729.3368 259.2663 729.445 259.4564 729.6958 259.7068 729.5463 260.2661 729.3093 260.1435 728.6069 260.3523 728.5099 260.3119 727.505 260.4637 726.7709 260.4596 726.5097 260.2094 726.1541 260.0251 725.5079 260.3825 725.2065 260.6887 724.0957 260.8435 723.6943 260.7458 723.6838 260.9812 724.3142 261.5435 724.6833 261.8553 724.7946 262.3017 724.7427 262.9228 724.5036 262.8216 724.2548 262.7634 723.7352 262.4975 723.4341 262.4833 722.752 262.4352 722.5166 262.6116 722.5173 262.7402 722.1958 263.3463 721.98 263.3499 721.7844 263.3533 721.235 263.5398 720.6291 263.3404 720.2298 263.4352 719.9389 263.2922 719.7533 263.0829 719.3663 263.4983 719.1705 263.3103 718.801 262.9769 718.5231 263.1544 718.2649 263.6096 718.2452 263.8024 717.8223 263.791 717.4578 264.0135 717.1113 264.1071 716.4399 263.6099 715.9617 263.2789 715.3116 262.7812 714.7794 262.5587 714.4454 262.3743 714.2148 261.9521 713.9961 261.5937 713.6734 261.5586 713.2962 261.696 713.2217 261.7895 713.0713 261.979 712.8565 262.1122 712.7592 262.3928 712.5117 262.5053 712.1455 262.7702 711.8994 263.0541 711.6519 263.1667 711.1325 263.1363 710.4826 262.8734 710.4823 262.6385 710.3721 262.3633 710.2719 262.0662 709.8742 261.9901 709.6239 262.1029 709.8537 262.2684 710.0366 262.4568 710.006 262.7351 709.7257 262.934 709.3266 262.922 709.2184 262.8737 708.8722 262.7191 708.6543 262.6174 708.6666 262.4676 708.6746 262.232 708.8046 262.1008 708.501 261.8729 708.1435 261.8172 707.3013 261.8585 707.2503 262.3083 707.283 262.5643 707.3826 262.7328 707.3499 263.033 707.0404 263.3394 706.6414 263.4556 706.4014 263.0767 706.4196 262.8409 706.1504 262.5909 705.6957 262.6016 705.7179 262.8788 705.5255 263.0546 705.4053 263.0357 705.0168 263.1521 704.8449 263.1988 704.6083 263.311 704.4812 263.5706 704.4672 263.6735 704.4494 263.8067 704.2228 263.8975 704.0491 263.8588 703.9221 264.1182 703.6414 264.2957 703.3179 264.2179 703.1659 264.2001 702.9195 264.4628 702.6371 264.4479 702.4333 264.7304 702.3486 264.8457 702.2089 265.0352 702.1444 265.2307 702.147 265.4639 702.1371 265.614 702.1187 266.1703 701.6205 266.0321 701.4579 265.8009 701.1412 265.5517 700.9371 265.471 700.6675 265.5414 700.4103 266.0392 700.3248 266.3834 700.2426 266.8343 700.2985 267.068 700.396 267.2582 700.6217 267.2313 700.8169 267.1626 700.9979 267.0515 701.1736 267.2824 701.3473 267.6632 701.2527 267.9432 701.3342 268.2407 701.3748 268.3893 701.4827 268.5576 701.5177 269.0271 701.6042 269.0892 701.6956 269.3735 701.7475 269.5348 701.5207 269.7324 701.0569 269.7006 700.786 269.4934 700.2956 268.885 700.2397 268.6512 700.0237 268.3997 699.7536 268.4488 699.5402 268.7746 699.3566 268.9926 699.2693 269.016 699.1957 269.0605 699.0442 269.1709 699.0142 269.3642 698.4965 269.526 698.1931 269.5331 698.0105 269.6869 698.0116 269.8365 698.1651 270.2605 698.3071 270.428 698.5147 271.0003 698.3341 271.5817 698.0871 271.9297 696.6002 272.3924 696.1899 272.4875 695.7877 272.347 695.9641 272.7278 696.332 272.8687 696.884 273.1551 697.1781 273.3405 697.5228 273.5033 697.7294 273.8192 697.6601 273.9885 697.624 274.078 697.1711 274.1742 696.8045 274.3113 696.7833 274.4165 696.7523 274.5689 696.5051 274.7029 696.4418 275.0679 695.5969 274.8742 695.3813 274.7721 695.0774 274.3947 695.2478 274.1767 695.3226 273.9613 695.2018 273.6865 694.8256 273.8662 694.6536 274.1266 694.297 274.135 693.9923 273.9499 693.9809 273.6938 694.1307 273.4977 694.3232 273.1943 694.6363 273.0585 694.809 272.8191 694.7537 272.6068 694.2676 272.8746 693.7404 273.1865 693.1263 273.4359 692.8227 273.4217 692.7945 273.559 692.6771 274.1303 692.409 274.3935 691.8377 274.7488 691.4953 275.3554 690.9236 275.711 690.7421 275.6726 690.5113 275.1436 690.6287 274.82 690.6968 274.4871 690.5369 274.0741 690.3418 274.036 690.2371 274.5729 690.0693 275.2394 689.9709 275.3486 689.8794 275.992 689.6181 276.0836 689.0486 276.311 688.8403 275.931 688.8583 275.5051 688.7294 275.271 688.5244 275.2758 688.385 275.4501 687.942 275.5032 687.7684 275.5928 687.8889 275.8466 688.1286 275.8624 688.2783 276.0083 688.238 276.3515 687.8608 276.7022 687.2602 277.2935 686.971 277.557 686.6451 277.5004 686.2253 277.8523 685.8388 278.0537 685.126 278.0492 684.5104 278.2349 684.0232 278.1179 683.8513 278.0365 683.335 278.4763 683.0109 278.3985 682.6197 278.151 682.4227 277.8138 682.4224 277.5571 682.4421 277.3857 682.4875 277.0491 682.613 276.7404 682.7081 276.4818 682.7689 276.1831 682.8136 275.8594 682.6498 275.9061 682.3372 276.0843 681.9742 276.4778 681.8021 276.7596 681.4899 277.045 681.3516 277.1551 681.0924 277.3534 680.5997 277.8781 680.3731 278.0971 680.1354 278.274 679.965 278.6198 679.1131 279.0461 678.8898 279.3932 678.8515 279.6146 678.8261 279.7369 678.5582 279.9996 678.019 280.2692 677.6074 280.3001 677.186 280.2459 675.9038 280.8319 675.2233 280.6127 674.9416 280.6193 674.4987 280.4588 674.2712 280.4001 674.1398 280.1252 674.194 279.9316 674.299 279.6514 674.4166 279.3278 674.5773 279.1531 674.8369 278.9974 674.985 278.8441 675.0925 278.6706 675.1147 278.5847 674.9189 278.397 674.6693 278.3171 674.3035 278.3685 674.0567 278.6096 673.9157 278.848 673.8306 279.0639 673.7158 279.3871 673.3258 279.5672 673.0452 279.5097 672.785 279.4091 672.5781 279.2216 672.4904 278.9884 672.295 278.7153 672.0992 278.5276 671.6212 278.1113 671.4482 277.9872 671.3931 277.7958 671.6635 277.6399 672.2782 277.5399 672.8716 277.4192 672.8171 277.2495 672.621 277.1685 672.3188 277.09 671.8429 277.1226 671.4967 277.1094 671.1538 277.1175 670.5924 277.4516 670.2807 277.5444 669.9765 277.5088 669.2526 277.2692 668.6119 276.8357 668.1584 276.6537 667.5403 276.3906 666.6849 275.9832 666.3263 275.6712 666.1101 275.3929 665.9999 275.2513 666.0199 274.9731 666.2777 274.4966 666.3666 274.3898 666.5238 274.1059 666.3594 273.8962 665.9405 274.077 665.7664 274.252 665.4449 274.495 665.1302 274.3528 664.9993 274.206 664.8901 273.8668 664.9227 273.7805 664.9708 273.6813 665.1036 273.4341 665.0811 273.1569 664.7668 273.143 664.1337 273.4784 663.8615 273.4421 663.4946 273.2371 663.1797 272.9664 662.0093 272.2886 661.1083 271.626 660.8699 271.3322 660.8982 270.6048 659.9661 270.1138 659.3261 269.9366 659.003 269.7733 658.546 269.5701 657.2623 269.4936 655.2991 270.5445 653.8782 271.305 652.462 272.621 651.3727 273.4186 650.8034 273.8357 Z" id="51005"/>
<path d="M 463.6119 307.4979 463.6042 307.507 463.3511 307.8017 462.5418 308.7443 459.0773 313.0806 458.1795 314.4913 457.575 316.2585 457.3637 316.9756 457.2453 317.3778 456.0745 318.261 454.9566 319.4846 454.6049 320.2413 454.1912 320.7402 453.2319 321.8981 452.4407 323.4347 452.2733 324.2295 451.9961 324.9841 451.3392 325.4487 450.7945 326.2528 446.2775 331.4049 445.0355 333.3368 444.6838 333.8561 443.3856 335.7701 442.5496 337.2007 442.1454 337.8729 441.5907 339.1685 441.2475 339.8393 440.9502 340.6374 440.8294 340.9758 440.5584 341.737 440.4525 342.0235 440.2485 342.5778 439.7475 343.4446 439.2446 344.3331 438.9857 344.4034 438.9585 344.437 438.5979 344.883 438.5156 345.3335 438.3976 345.509 437.755 346.4632 437.3575 346.7507 437.049 347.6556 436.1492 348.7459 435.4585 349.1045 434.9975 349.7567 430.8912 354.7066 429.681 356.7446 429.5014 357.2406 429.1244 357.7195 427.5815 359.6158 425.9388 361.579 424.1558 362.8828 423.1668 364.0177 422.1123 364.6414 421.3458 364.7452 419.2864 368.7483 419.3403 369.1105 419.8608 369.4184 420.0357 369.6282 420.015 369.8637 419.7813 370.2114 419.3597 370.3924 419.0675 370.1858 418.9122 369.8046 418.6083 369.427 418.3058 369.5842 418.2063 369.7574 417.8142 370.3866 417.6874 370.8599 417.7459 370.9233 418.1348 371.3405 418.5543 371.3091 418.8122 371.1961 419.3956 371.1181 419.9172 371.5759 420.3023 372.5714 420.1636 373.1087 419.2924 373.728 419.2081 373.8189 418.9063 374.1434 418.1952 374.4384 417.8716 374.4889 417.5022 374.3906 417.2846 373.7333 417.3019 373.3483 417.2034 373.0086 417.157 372.6249 417.5031 372.296 417.6098 372.0926 417.6507 372.0146 417.4436 371.6992 417.1515 371.5993 415.8297 372.6139 415.1868 373.5485 413.5849 374.5271 413.1863 375.2208 412.4131 375.5811 411.3866 375.8196 411.3459 376.1196 411.5093 376.3934 410.7996 376.6457 409.9903 376.9427 409.5254 377.0824 409.0294 377.137 408.4216 376.7453 407.9242 376.6291 407.1579 376.5189 406.4968 376.2143 406.062 375.7331 405.5183 375.1263 404.7502 374.6958 403.0268 373.9252 402.3889 373.5982 401.5547 373.3191 400.9498 373.2483 400.3651 373.2835 399.6003 373.3232 398.8546 373.4051 397.8849 373.5565 397.405 373.8212 396.9133 374.0928 393.3648 373.0664 392.3063 372.7499 391.1368 372.5426 390.5878 372.6199 390.0058 372.8691 389.6142 372.5151 388.8879 371.934 387.9898 371.8701 387.3949 371.7989 387.2456 371.7811 386.8326 371.6415 386.3041 371.7824 385.289 371.6999 384.7039 371.1582 384.2484 371.0196 384.1283 370.659 383.7328 369.6852 382.9722 368.9127 382.3345 368.7144 381.7605 368.7495 380.8331 368.7717 380.2296 368.893 379.3868 368.8064 379.0496 368.6005 378.5929 368.0771 378.3189 367.507 378.0466 367.15 377.6563 366.6037 376.8195 366.0894 376.2266 365.9968 374.916 365.686 373.0677 365.4741 371.4797 365.4695 368.8689 365.8525 366.6808 366.6747 364.8489 367.2744 363.7034 367.3019 362.8638 367.9204 362.038 368.5173 361.2594 368.5574 360.5708 368.9157 360.1632 369.3317 360.2091 370.0358 360.0505 370.6381 359.6202 370.6484 357.8445 366.331 356.736 367.1483 355.6275 367.6239 353.7476 369.3362 353.0168 369.9091 352.2001 370.677 350.4132 371.5961 349.0127 372.2068 347.9594 373.3222 346.7624 373.7785 345.223 374.6916 343.4144 375.3762 342.2672 375.3397 337.8101 379.1656 335.5191 380.9092 333.8021 382.8739 331.5015 385.2161 331.305 385.4102 327.9655 381.4315 335.0701 375.0495 340.069 371.366 341.1 371.8164 346.1706 364.3354 355.3099 357.364 365.056 354.7295 366.5549 353.7977 367.0348 351.9115 367.4676 348.8008 368.423 348.3298 369.5572 350.6923 369.8839 352.8609 371.6101 353.5908 374.208 354.1178 375.2671 353.9266 376.9277 352.045 377.2944 350.526 376.958 349.4658 375.5337 348.6885 373.9933 349.6524 373.8454 348.1251 370.8316 348.0107 370.6803 346.3341 373.0273 345.8733 372.1543 345.6739 359.2618 340.3852 338.2262 336.0491 320.1958 335.7683 301.3014 335.0097 291.2441 335.3488 280.5163 333.4674 279.3276 331.3702 287.7163 326.0466 295.6117 319.0709 295.0927 316.7444 298.5626 314.0315 298.8741 312.683 290.2801 312.1881 283.9837 311.5621 284.1103 311.9268 282.0714 315.3145 275.7587 315.8468 271.6809 311.0073 276.0723 306.0225 282.7717 307.7418 285.9036 299.5409 289.1595 290.3214 300.2596 284.3994 304.8744 278.7425 324.1171 267.1634 329.7964 269.6567 347.7696 269.0405 355.8769 255.5437 361.5704 251.3918 363.9362 244.8907 363.682 244.6844 363.0893 241.5167 363.2335 236.7079 366.3365 236.6983 374.1841 234.8921 373.8344 234.2923 376.1303 233.1774 383.1128 231.0381 384.4905 230.4986 383.7556 227.3355 385.1141 225.7149 386.0046 224.3902 387.6828 223.3755 389.6693 223.8265 390.868 225.5599 391.5416 227.561 391.5883 228.2695 392.7313 228.0912 413.1758 236.9712 422.1552 238.8679 426.1695 241.939 427.407 242.6309 425.4039 247.5762 426.7225 249.2244 429.9271 247.123 429.6399 243.8793 432.9602 245.7356 440.7637 247.9244 454.465 258.5413 457.2591 262.3735 456.3678 263.4521 454.1675 261.2203 449.7174 258.6015 446.6519 258.2086 443.2942 259.6265 436.9795 258.2294 427.3863 260.4044 419.4247 266.6875 423.918 279.1514 427.6232 278.5493 428.3433 276.3558 426.9775 275.3662 425.0098 273.6301 424.2607 272.4796 425.1376 271.6096 427.0527 270.5822 428.9111 270.1744 431.0173 270.2253 441.3592 262.6022 443.4591 262.9133 444.6477 263.8286 450.2899 266.1949 449.2646 277.8069 449.9572 277.6667 447.226 281.5639 449.1683 282.7081 451.3975 282.6536 452.7218 284.7786 454.2889 285.8411 457.3789 283.253 458.4824 283.5254 457.7982 285.9228 455.26 288.0478 451.4637 285.9773 444.5686 283.0588 444.2367 284.8513 446.2698 285.8756 446.3942 287.9753 444.0292 287.3607 441.9962 287.2071 442.3281 288.8971 443.7803 289.8189 443.4069 291.0481 440.0876 290.6896 440.0876 292.5844 452.6594 291.4065 455.6641 292.3337 455.4348 293.3416 452.3312 297.6452 463.6119 307.4979 Z" id="51002"/>
<path d="M 285.9036 299.5409 282.7717 307.7418 276.0723 306.0225 271.6809 311.0073 275.7587 315.8468 282.0714 315.3145 284.1103 311.9268 283.9837 311.5621 290.2801 312.1881 298.8741 312.683 298.5626 314.0315 295.0927 316.7444 295.6117 319.0709 287.7163 326.0466 279.3276 331.3702 280.5163 333.4674 291.2441 335.3488 301.3014 335.0097 320.1958 335.7683 338.2262 336.0491 359.2618 340.3852 372.1543 345.6739 373.0273 345.8733 370.6803 346.3341 370.8316 348.0107 373.8454 348.1251 373.9933 349.6524 375.5337 348.6885 376.958 349.4658 377.2944 350.526 376.9277 352.045 375.2671 353.9266 374.208 354.1178 371.6101 353.5908 369.8839 352.8609 369.5572 350.6923 368.423 348.3298 367.4676 348.8008 367.0348 351.9115 366.5549 353.7977 365.056 354.7295 355.3099 357.364 346.1706 364.3354 341.1 371.8164 340.069 371.366 335.0701 375.0495 327.9655 381.4315 331.305 385.4102 331.2575 385.4571 331.0467 386.2313 329.5272 387.0802 329.2699 387.3277 327.4548 389.0749 324.9327 391.7215 324.441 392.6311 324.617 392.8832 321.6255 396.6952 322.028 397.4122 321.8694 397.7794 321.4588 397.5116 320.8199 397.6124 319.8628 398.1698 317.5929 400.7035 316.9265 401.7452 316.7448 402.2625 316.468 402.8998 316.3411 403.1914 315.9655 403.8416 315.5719 404.1716 315.1113 404.9308 314.3731 405.9955 313.4586 407.2357 313.3389 407.6532 313.2675 407.9028 313.0126 408.1656 312.5449 409.63 311.2477 410.7726 310.4098 411.6689 309.6927 412.5839 309.1286 413.4736 308.9376 413.961 308.5621 414.9194 308.2686 416.3368 308.0983 417.0034 308.0275 417.2859 307.8286 418.0785 307.4325 418.3015 307.1045 418.7157 306.9103 419.8318 306.8186 420.5606 306.1554 422.5212 306.1567 423.5684 306.6983 424.0898 307.5984 424.6879 309.1604 425.2914 309.6268 425.8787 309.5736 426.2815 309.505 426.8003 308.8803 427.9267 306.4482 427.216 305.4969 426.6832 304.184 426.0523 303.1142 425.4795 302.7048 425.2759 302.1627 425.1605 301.9049 425.4937 301.4222 426.1188 301.1367 427.1943 300.8343 427.4579 299.6208 429.4318 298.8743 431.0314 297.928 433.5119 297.5946 434.5885 297.174 436.3702 296.8992 437.5332 296.5132 439.2948 296.426 439.5186 295.9992 440.6109 295.184 443.0023 294.6732 444.4467 294.4365 445.0081 294.4319 446.0335 293.7321 445.5807 292.7554 445.433 292.0594 445.2576 290.9359 444.8785 289.4178 444.8937 288.1115 444.5407 287.1012 443.8812 285.8105 443.1855 284.9902 442.3505 283.4099 441.3414 281.99 440.7985 280.9443 440.4393 279.5105 440.324 276.7996 439.6201 275.2502 438.5461 272.4541 437.3954 269.7128 436.7564 267.7651 436.3972 266.2749 436.0273 265.4443 435.6625 264.5841 435.3842 263.2153 434.7548 261.8785 433.4618 261.0997 432.0488 260.584 430.6082 260.4757 428.5161 260.4045 427.2144 260.24 425.6798 260.1841 424.0141 260.0367 422.1797 260.1791 421.129 260.1139 419.6347 259.9134 418.357 259.4403 416.9367 259.223 415.8519 258.9772 414.4687 258.3846 412.6024 257.8483 410.756 257.0759 409.1503 255.5469 407.4988 254.2644 406.2475 253.4511 405.1774 252.6633 404.2559 251.5682 403.6198 250.3507 402.9868 248.9694 402.7207 248.2891 402.1815 246.9211 402.0437 245.6035 402.7807 244.9656 403.8007 244.3718 404.435 243.6229 405.9274 243.8243 406.2433 243.4629 407.577 242.9755 408.5506 242.4258 409.2478 241.9574 409.5581 241.694 409.8852 241.8663 410.8639 242.1561 412.3104 242.0442 414.1938 241.7003 415.8264 241.3903 417.0948 241.0867 418.085 240.6487 419.4423 240.3169 421.1383 240.0806 422.8325 239.8255 424.0568 239.6163 424.8738 239.4715 425.7111 239.3734 426.7176 238.6348 428.1889 237.7951 428.8932 236.5525 430.0985 235.5871 430.4209 233.3595 430.5818 232.1029 430.0992 230.3962 429.7986 228.9173 429.4497 227.8169 428.7067 224.9728 427.8781 223.1084 427.2179 220.5486 426.5102 219.5138 426.2789 217.9903 425.8456 216.8849 425.338 214.6931 424.6644 213.5533 425.0555 212.8579 425.4354 212.0615 427.1644 211.1462 427.9345 210.0276 428.8593 209.3847 429.1098 208.0444 429.7832 207.0066 430.3215 206.013 430.0251 205.2457 429.5307 204.3349 429.0398 203.8084 428.7105 202.9737 428.6237 202.3234 428.5542 201.4321 428.4263 200.5749 428.4043 200.0508 428.1817 199.4427 427.5553 198.1478 426.796 197.6965 426.3794 197.1208 425.8804 196.6691 425.4642 196.4334 425.0637 196.396 424.3808 196.9405 424.4744 197.6595 424.6065 198.2232 424.7212 198.7194 424.5595 198.8695 423.5089 198.7571 422.8061 198.5163 422.1922 198.1077 421.2406 197.8239 420.1574 197.7689 419.0901 197.3893 417.5607 197.3255 416.579 196.7507 416.1199 196.4217 415.8572 203.3459 403.4845 196.4306 384.6949 190.1644 377.2672 192.6971 362.2758 225.1339 347.5153 225.8589 340.0952 237.3046 336.9833 232.6495 316.2289 238.2912 305.5903 259.677 302.6077 260.0748 301.1345 272.1122 297.7952 278.0328 297.6984 285.9036 299.5409 Z" id="51003"/>
<path d="M 635.2044 182.4531 640.5408 183.6882 648.0895 187.9919 654.6752 197.4466 657.8949 206.9614 650.7238 212.9834 653.2118 221.9561 648.9188 225.8703 644.2845 224.6659 642.3331 227.3758 637.2597 230.6878 633.2479 236.2385 634.4099 237.6004 635.7915 242.1856 632.6856 244.3481 631.0699 244.9319 629.9701 244.3262 628.9401 245.619 630.8237 248.2195 633.1982 253.0135 635.1292 258.0448 637.6262 268.25 636.8648 271.2518 642.1034 274.2311 650.8034 273.8357 648.1512 274.8605 646.5683 275.646 646.5051 275.7074 645.6212 276.566 645.3661 277.1278 645.404 277.8323 645.5888 278.2341 645.8178 278.6991 646.328 279.136 646.4698 279.389 646.0949 279.8469 645.835 279.8957 645.6307 280.1355 645.4296 280.5252 645.4953 280.7159 645.4818 280.8402 645.4646 280.9947 645.2159 281.2783 644.9918 281.4759 644.7854 281.4167 644.5246 281.0598 644.2397 280.596 644.0195 279.8318 643.3915 279.3763 642.806 279.1338 641.7281 279.672 641.0964 280.3068 640.3021 281.8944 640.263 281.9725 640.1515 282.3929 639.9333 283.2201 638.6906 284.9168 637.9396 285.7896 637.4977 286.1207 637.3833 286.6021 637.3087 286.9159 636.5248 288.0888 635.0427 289.5345 634.1962 290.6447 633.349 291.9686 632.7052 292.5182 632.5153 293.1641 632.6048 293.8031 632.6858 294.1068 632.6287 294.2515 632.5207 294.4036 632.111 294.6272 632.0469 294.8007 632.0157 294.8858 632.4372 294.9399 632.7183 294.8905 633.0225 295.0543 633.1748 295.3074 632.9622 295.8895 632.7881 295.9577 632.4201 295.7956 631.9317 295.5076 631.5424 295.346 631.3391 295.5879 630.8462 296.1746 630.325 297.7688 630.4345 298.0226 630.3882 298.2397 630.3196 298.5597 630.0719 298.8863 630.112 299.0815 630.1376 299.2052 630.462 299.1975 630.7757 298.9552 631.3025 298.7287 631.6184 299.042 632.0615 299.3306 632.2859 299.6076 632.7031 299.9353 632.7804 300.1688 632.7614 300.8319 632.2304 300.5236 632.0138 300.3579 631.7097 300.2155 631.2354 300.2908 631.1111 300.9993 631.0904 301.4913 630.8996 301.8589 630.7177 302.1626 630.5129 302.2743 629.9836 302.3936 629.4799 302.9186 629.8154 303.039 630.0441 303.3756 630.1514 303.5226 629.8837 303.807 629.8299 304.0005 629.756 304.1305 629.2418 304.8908 628.6763 304.0278 628.5242 303.5744 628.4558 303.3704 628.1293 303.0574 627.7303 302.9386 627.2405 302.7152 626.5726 302.9233 625.9809 303.1082 625.5275 303.397 625.5284 303.4202 625.5533 304.0376 625.5253 304.6581 625.0945 305.1172 624.5122 305.131 623.7345 305.085 623.5706 304.7898 623.5374 304.6197 623.3401 304.2608 623.4569 304.0231 623.4012 303.8104 622.949 303.693 622.7437 304.0186 622.6606 304.3196 622.1864 304.5231 621.7003 304.5563 621.1587 304.4833 620.8775 304.2977 620.6832 304.5159 620.8035 304.7698 620.741 305.049 620.4946 305.3115 619.6091 305.3325 619.306 305.4465 618.886 305.3496 618.5697 305.2504 618.344 305.1486 618.1807 304.8746 617.7325 304.2653 617.1062 304.2161 616.9341 304.4765 616.5906 304.5701 615.8443 304.6304 615.541 305.0581 615.5358 305.0653 615.3845 305.0903 614.5885 306.0925 614.3117 306.6337 614.3347 306.9533 614.3149 307.2319 614.1424 307.471 614.0691 307.7504 614.0607 308.0926 613.7034 308.1653 613.0682 308.1803 612.6876 308.0611 612.3207 308.1767 611.7483 308.1473 611.4686 308.0259 611.3601 308.1565 611.0699 308.1634 610.3628 307.7313 609.8551 307.4015 609.3687 307.3064 608.9367 307.4872 608.561 307.6885 608.5959 308.2648 608.6543 308.8192 608.3286 308.891 608.1356 308.8315 608.0142 308.5353 607.9482 308.2161 607.4822 308.1844 606.8244 308.2639 606.0894 308.3456 605.898 308.5854 605.4764 308.7663 605.1003 308.9461 604.4741 309.0036 603.785 309.2122 603.2786 309.5236 602.9659 309.7874 602.5455 310.0113 602.3509 310.1227 602.2241 310.3819 602.3541 310.593 602.2043 310.8956 602.0118 311.1996 601.5582 311.2531 601.0741 311.3713 600.7804 311.4424 600.5995 311.4253 600.2087 311.5627 599.9955 311.6532 599.7027 311.7456 599.3462 311.7541 598.9695 312.0197 598.8426 312.1722 598.4761 312.3093 598.452 312.318 598.099 312.4465 597.7081 312.4558 597.365 312.5708 597.1263 312.7046 596.8805 313.0095 596.5235 312.8684 596.4382 313.0844 596.2767 313.3445 595.9435 313.5447 595.5674 313.8317 595.2745 313.8386 594.726 314.2575 594.1441 314.3998 593.8204 314.557 593.8344 314.813 593.489 314.928 592.9804 314.9187 592.7304 314.6896 592.4077 314.7614 592.3995 315.1037 592.7674 315.3514 592.995 315.5382 593.0933 315.6431 593.0194 315.9011 592.6309 315.9958 592.5013 316.1484 592.3294 316.409 591.9647 316.5246 591.6382 316.4469 591.4322 316.3877 591.0145 316.6112 590.4422 316.7102 589.8151 316.7465 589.5783 316.8375 589.5106 316.5828 589.4127 316.3715 589.3354 316.138 589.0569 316.166 588.6806 316.5597 588.3903 316.7802 588.1964 316.892 588.6189 317.3306 588.5997 317.545 588.8058 317.711 588.9051 318.2003 588.8511 318.2657 588.5935 318.2932 588.3438 318.1923 587.8681 318.0964 587.4674 318.149 587.3284 318.0024 587.2396 317.7268 586.8716 317.7996 586.2135 317.9861 585.963 317.6289 585.7578 317.377 585.6893 317.0796 585.0873 317.2648 584.7614 317.2084 584.4582 316.8734 584.1672 317.0516 584.1481 317.3725 584.451 317.3439 584.7759 317.4858 584.6689 317.9159 584.3464 318.2229 584.8573 318.6808 585.1394 318.9095 585.2811 319.0556 585.1627 319.2293 584.7733 319.3027 585.1312 319.5936 585.4784 319.6494 585.4479 319.8211 585.2643 320.0394 584.8442 320.0493 584.6036 319.8836 584.2577 319.7638 584.117 319.6604 584.0177 319.406 583.792 319.3045 583.5097 319.1832 583.2688 318.7825 583.0717 318.3173 582.899 318.1074 582.6279 317.772 582.1735 317.7828 581.9583 318.0229 581.9707 318.322 581.7573 318.5193 581.6155 318.6081 581.2064 318.8528 580.9804 318.8582 580.6443 318.6951 580.2984 318.8103 580.3895 319.1716 580.3887 319.3852 580.3373 319.7927 579.8857 320.0384 579.1643 320.5899 578.5588 320.5188 577.7497 320.7302 577.3418 320.9112 576.8776 320.9649 576.357 320.9986 575.9041 321.0735 575.5812 321.0384 573.8891 319.8815 573.7474 319.5214 573.874 319.2407 573.9067 319.069 573.6557 318.9037 573.4732 318.9508 573.1844 319.2143 573.0224 319.2395 572.7393 319.1821 572.5878 319.0786 572.4798 318.8887 572.5543 318.7803 572.4017 318.5276 572.2704 318.3594 572.1633 318.2124 571.6197 317.969 571.133 317.9592 570.2938 318.1286 569.7862 318.1407 569.6935 318.1642 569.0729 318.2429 568.61 318.703 568.4394 319.1343 568.041 319.2723 567.6843 319.2593 567.3291 319.2034 567.0053 319.3395 566.5179 319.0944 566.2259 319.0159 566.1059 318.8694 565.8767 318.5325 565.6716 318.3878 565.37 318.4591 565.0129 318.553 564.5799 318.5847 564.3546 318.6113 564.3203 318.3985 564.1566 318.2316 563.7466 318.0917 563.5298 317.8186 563.3237 317.653 563.0418 317.5313 562.685 317.4113 562.2719 317.2502 562.067 316.9133 561.6556 316.9659 561.0838 317.2998 560.8038 317.4986 560.6424 317.5456 560.3845 317.4231 560.491 317.207 560.6402 316.99 560.509 316.7362 560.2059 316.7221 559.4388 316.4628 558.519 316.3776 557.9137 316.0712 557.0051 315.7934 556.6052 316.1023 556.1295 316.1136 555.7189 315.8456 555.384 315.8536 554.9528 315.8421 554.4856 315.7891 553.859 315.4834 553.3947 315.4305 553.0705 315.4382 552.7775 315.4238 551.9899 315.2926 551.9566 315.1225 551.9653 314.93 551.3492 314.7524 550.776 314.5948 550.4114 314.5603 550.0509 314.5266 549.0902 314.2942 548.9248 314.2542 548.138 314.1657 547.5634 313.9444 547.2063 313.9102 546.8395 313.8121 547.0938 313.3144 545.5865 312.0036 544.0224 310.7583 543.5229 310.1076 539.3055 307.2367 537.6766 305.7363 537.0964 304.7026 534.9807 302.8506 533.6912 302.3255 531.8204 301.6006 530.6721 301.5423 529.6389 302.1655 529.0163 302.6079 528.4874 302.6418 528.5074 302.342 528.8843 302.098 529.1301 301.7927 528.8906 301.6916 528.4696 301.7657 528.0278 301.8617 527.8259 302.1018 527.7194 302.5533 527.9709 302.9532 528.3848 303.4778 528.751 303.6613 528.2883 303.7795 527.4648 303.4783 527.2352 302.8853 527.0913 302.3116 526.8375 301.4841 526.9893 301.2452 527.493 300.8486 527.912 300.4538 528.0419 300.1943 527.9488 299.4268 527.7208 298.7698 527.0548 297.9306 526.3173 297.4565 524.9017 297.2338 524.5021 297.3074 524.2211 297.2402 519.949 296.2187 519.6187 296.8891 515.7009 295.7854 515.3552 295.7936 514.9204 295.2909 514.2482 294.8577 513.7178 294.5928 513.1779 294.4775 512.3406 293.8348 511.7584 294.0837 511.2744 294.0952 506.1341 294.6025 502.5851 295.2641 500.9442 295.6237 500.5685 295.932 500.1792 296.1337 499.5205 296.0638 497.7646 297.0673 496.6921 298.397 496.5008 298.9572 495.9291 299.0776 495.5199 299.0018 495.1388 298.6263 494.92 298.2466 494.9294 297.7547 494.8501 297.3294 495.141 296.9162 495.2015 296.5512 495.4153 296.0334 495.4469 295.6692 495.411 295.2851 494.9622 294.4198 494.4613 293.4695 493.4965 292.7231 493.0575 291.9428 488.8529 292.3207 487.9531 292.4062 488.3193 292.9249 489.9126 295.1812 489.6096 295.2952 487.4013 292.4621 486.3656 292.7649 485.4367 292.6376 484.0655 293.0333 482.3956 293.6289 478.4322 295.7753 475.4614 297.599 475.0359 298.0175 472.4745 300.5346 472.3028 300.829 472.0579 301.2498 469.4723 302.2733 467.0306 303.8492 464.6776 306.2566 463.6119 307.4979 452.3312 297.6452 455.4348 293.3416 455.6641 292.3337 452.6594 291.4065 440.0876 292.5844 440.0876 290.6896 443.4069 291.0481 443.7803 289.8189 442.3281 288.8971 441.9962 287.2071 444.0292 287.3607 446.3942 287.9753 446.2698 285.8756 444.2367 284.8513 444.5686 283.0588 451.4637 285.9773 455.26 288.0478 457.7982 285.9228 458.4824 283.5254 457.3789 283.253 454.2889 285.8411 452.7218 284.7786 451.3975 282.6536 449.1683 282.7081 447.226 281.5639 449.9572 277.6667 449.2646 277.8069 450.2899 266.1949 444.6477 263.8286 443.4591 262.9133 441.3592 262.6022 431.0173 270.2253 428.9111 270.1744 427.0527 270.5822 425.1376 271.6096 424.2607 272.4796 425.0098 273.6301 426.9775 275.3662 428.3433 276.3558 427.6232 278.5493 423.918 279.1514 419.4247 266.6875 427.3863 260.4044 436.9795 258.2294 443.2942 259.6265 446.6519 258.2086 449.7174 258.6015 454.1675 261.2203 456.3678 263.4521 457.2591 262.3735 454.465 258.5413 440.7637 247.9244 432.9602 245.7356 429.6399 243.8793 429.9271 247.123 426.7225 249.2244 425.4039 247.5762 427.407 242.6309 426.1695 241.939 422.1552 238.8679 413.1758 236.9712 392.7313 228.0912 391.5883 228.2695 391.5416 227.561 390.868 225.5599 389.6693 223.8265 387.6828 223.3755 386.0046 224.3902 385.1141 225.7149 383.7556 227.3355 384.4905 230.4986 383.1128 231.0381 376.1303 233.1774 373.8344 234.2923 372.0801 227.8667 374.315 227.084 374.8973 226.835 375.81 226.2787 376.6395 225.7243 377.2511 225.261 377.8665 224.8399 378.3709 224.5711 378.9515 224.1513 379.7608 223.6187 380.1123 223.1827 380.4796 222.9602 381.0637 222.9034 382.1645 222.7702 383.3937 222.5481 384.1832 222.4224 384.8939 222.1062 385.1408 221.7369 385.1866 221.5413 385.2565 221.2422 385.6207 220.8916 386.4389 220.6153 386.8583 220.2422 387.0616 219.9591 387.4269 219.6512 387.8586 219.4696 387.9776 219.2104 388.1285 219.0572 388.3088 218.9249 388.4451 218.8015 388.6003 218.661 388.9425 218.2679 389.2225 217.962 389.209 217.7238 389.1948 217.4709 389.1254 217.3444 389.1199 217.2991 389.089 217.0459 389.0523 216.4056 389.0606 215.9779 389.2752 215.8229 389.5569 215.7948 390.006 215.4422 390.2969 215.2643 390.4584 215.1105 390.7272 214.8904 390.9984 214.8839 391.6663 214.7824 391.8491 214.7567 392.0127 214.5818 392.1487 214.2578 392.226 214.1491 392.212 213.8927 392.201 213.7646 392.6865 213.6036 392.8065 213.7289 392.9785 213.7888 393.3466 213.6091 393.72 213.2152 393.8516 213.148 394.0552 213.2072 394.4786 213.4538 395.203 213.7142 396.8995 213.6735 399.2453 213.6387 400.4729 213.3529 401.8431 213.0206 403.2008 212.3895 403.911 211.9452 404.9031 211.4724 406.4321 210.5377 408.078 209.387 408.7893 208.985 409.9863 208.6355 411.3774 208.1747 414.0121 208.0905 416.2394 208.2294 418.3991 208.3273 419.6221 208.6189 420.2931 208.8805 421.611 208.9131 422.6165 209.0177 423.5792 208.8874 424.1506 208.6387 424.6561 208.5411 425.0673 208.3604 425.5974 208.2002 425.6061 208.1976 427.0178 205.9194 427.9255 204.2515 428.8543 202.3694 430.3097 199.8976 432.5966 195.6956 433.8784 192.9928 434.7042 192.1391 436.1775 190.9922 438.3841 189.2294 441.1181 187.4965 445.8219 184.4765 450.5692 181.5841 452.7225 180.5064 454.9242 179.898 456.985 179.5065 459.6326 179.636 464.3776 180.1426 469.2885 180.7949 471.8255 180.8626 476.9385 181.0614 480.6107 182.6628 484.7392 184.6592 488.336 186.7969 494.0294 190.5091 500.7524 194.4321 506.9731 197.7256 515.8808 202.9434 518.6544 204.0105 541.902 207.6476 541.9921 208.2013 544.5319 208.5045 545.0652 209.1117 545.2959 209.6404 545.3096 210.0036 545.2584 210.7743 545.0237 211.1862 544.6577 211.5798 544.2829 211.9305 543.559 212.0332 541.4393 211.7204 541.4407 211.8913 540.2403 211.8771 539.5172 215.6353 536.4041 215.2603 536.9434 211.1646 516.0844 208.1976 476.9563 185.8711 454.6754 185.6759 438.2012 194.9843 436.6075 197.9085 473.249 230.5742 473.6789 230.2004 473.1885 229.7208 473.3085 229.5039 473.9237 229.8741 474.4292 229.4132 477.8378 232.2604 477.5075 232.8028 477.8233 233.1157 477.6521 233.3979 477.2507 233.1938 476.8097 233.5462 493.5963 248.1951 492.8776 249.1739 492.5643 248.9678 493.024 248.2942 486.8912 243.1817 481.5239 249.2097 482.9464 250.4155 497.7632 255.321 516.4199 232.7732 516.7766 232.6793 517.2529 232.7961 520.0957 235.1013 520.2926 235.4602 520.2837 235.8667 520.2213 236.1459 496.3315 265.3162 496.0092 265.8797 495.8945 266.5451 495.4975 267.3026 495.4051 267.7752 495.3221 268.3116 494.523 268.7155 493.3633 269.299 493.2214 269.3664 493.7997 270.5497 496.8587 269.0657 497.4586 269.9067 499.6266 269.342 501.6217 268.8882 503.5496 269.5261 507.4289 271.9348 507.8319 272.2033 507.9267 273.8684 513.7171 275.6331 519.4617 277.1419 521.7752 277.5572 523.7735 277.5736 526.3275 276.4659 526.9568 276.6431 528.0484 276.8949 530.0393 273.898 530.5491 266.6395 516.5448 260.068 516.2347 260.4389 515.3221 259.9901 515.8022 258.4613 515.9481 257.9875 516.3258 257.8717 518.0804 258.5139 530.7228 264.519 532.2416 265.6372 533.6339 267.6133 533.7464 270.3469 533.7484 272.2279 533.5139 272.8961 533.3335 273.3707 533.9494 273.6551 534.0198 274.3802 534.7583 274.6251 535.4032 274.839 538.6792 275.2315 540.8475 274.6669 544.2231 273.7745 545.7983 273.2716 546.4774 273.0548 548.7095 272.3426 551.1121 271.4731 553.4194 270.4993 555.7622 270.2297 558.0715 269.8973 560.772 269.5766 562.6502 268.8494 564.8897 267.9824 567.9607 266.6697 569.241 267.815 570.009 269.8274 571.8794 269.9543 573.2675 269.2587 575.5591 267.601 575.8531 266.0762 576.9473 265.5353 577.5336 265.2455 579.4201 264.3673 581.9108 263.7096 583.0029 263.8974 583.5168 264.8046 584.5749 264.6723 586.2294 264.1459 586.7936 263.9663 591.3241 262.5244 594.8046 260.7532 594.9938 260.6832 596.097 260.2739 598.6145 258.5041 599.0397 257.2328 601.02 255.5826 601.779 254.3557 602.55 253.1094 603.0809 251.5793 603.5859 250.8834 604.3948 250.4366 605.7534 250.4044 608.1549 248.6587 610.1871 247.0717 611.8443 246.1558 612.9017 243.7153 611.8559 242.1153 614.3884 239.3834 614.3861 238.8276 614.6317 238.4155 614.9857 237.9799 615.1472 237.6124 615.4799 237.2626 615.9967 236.9511 616.7949 236.7399 617.4603 235.9547 617.9258 230.3854 615.8956 222.7806 571.5737 216.0071 570.9427 215.4233 570.6812 214.831 570.5896 214.085 570.7912 213.503 571.3715 212.9548 572.1371 212.5946 573.0461 212.6583 574.549 212.8794 574.9882 212.4413 582.0801 213.3207 588.4375 214.0676 597.7047 215.4514 606.311 216.7011 615.0473 217.9267 623.027 219.1059 623.3258 218.8133 624.1452 218.0105 624.9801 216.9649 626.3222 215.3083 626.6613 214.9154 629.6603 211.5311 632.8619 207.9494 634.9863 205.398 636.6565 202.8788 637.1015 201.4361 636.8598 200.5437 636.4027 199.7636 635.9556 199.197 635.726 198.8175 635.8426 198.4515 635.6019 197.9441 635.3522 197.736 635.2001 197.3764 635.415 197.0077 635.3684 196.7311 635.7885 196.1441 635.8997 195.2219 636.127 195.0456 636.4179 194.9746 636.2976 194.7207 636.21 194.4877 636.2843 194.2723 636.4674 194.1181 636.6837 194.0489 636.6918 193.835 636.6271 193.687 636.551 193.4961 636.6355 193.3446 636.5484 193.1544 636.2659 192.7975 636.3938 192.474 636.7375 192.0382 636.8966 191.436 637.0562 191.2184 637.1074 190.7895 637.1157 190.1266 636.8212 189.5989 636.44 189.2232 635.833 189.088 635.5199 188.7749 635.399 188.4996 635.4829 188.1131 635.4922 187.9416 635.3525 187.6458 635.2407 187.4344 635.2063 187.0933 635.2692 186.6001 635.4718 186.0395 635.5018 185.6324 635.5854 184.9891 635.5301 184.9049 635.0523 184.5958 634.7153 184.1974 634.6698 183.7281 634.8104 183.5966 635.0147 183.3354 635.2279 183.2449 635.4891 183.1528 635.3799 182.9204 635.1948 182.7325 635.0958 182.6063 635.1391 182.5198 635.2044 182.4531 Z" id="51001"/>
</g>
</svg>