<?xml version="1.0"?>
<svg xmlns="http://www.w3.org/2000/svg" version="1.2" baseProfile="tiny" width="800" height="1141" viewBox="0 0 800 1141" stroke-linecap="round" stroke-linejoin="round">
<g id="MELILLA">
<path d="M 378.7637 91.0373 367.0416 149.3218 335.904 183.0175 285.417 248.2532 274.6461 269.9026 285.0231 291.6947 283.8414 304.7269 265.3281 323.0683 297.234 348.6495 304.058 381.3127 308.7941 398.4165 311.4113 401.0126 324.1238 395.9731 329.8569 395.9731 337.5841 401.318 339.4536 405.4412 345.5606 416.131 353.4669 432.8698 358.9361 442.6537 361.7801 448.1487 362.0946 451.9035 362.6441 460.7502 364.9734 469.7625 363.8921 472.889 364.3963 473.9821 365.8669 475.3172 368.9427 482.5514 370.5765 483.4791 375.4779 492.9511 377.8689 495.3435 382.8899 494.367 384.0455 494.2694 384.9222 493.7323 386.6357 492.6582 388.9072 492.1699 392.1748 492.3164 393.45 493.4882 394.8846 494.9041 398.2717 497.0036 400.2244 498.1265 402.2168 500.0307 405.3649 502.1301 409.031 504.7666 412.8566 507.5984 416.5227 510.1373 419.9896 513.555 420.0655 515.245 422.828 518.6584 427.7533 534.4471 426.5632 539.1561 431.7368 541.8971 437.2775 550.7681 423.7491 558.3809 426.3447 565.7046 431.6145 569.8482 432.6369 571.6791 435.0752 569.8482 436.3336 566.5719 437.4348 563.0064 438.6146 559.73 447.581 558.2845 455.9182 559.6336 462.1318 565.1264 462.997 566.1864 463.654 566.1184 460.5496 567.6194 454.6956 572.8372 453.2285 576.2075 450.896 580.3079 447.8529 585.616 445.6867 588.902 443.6235 591.5771 442.7983 593.4728 440.9931 596.7588 437.7155 602.2114 437.4217 604.1014 436.1361 605.1364 434.9241 606.3963 433.7854 607.7463 432.7937 609.3213 431.609 610.6924 430.0023 617.7062 421.4035 619.0124 422.0531 626.2314 408.5879 628.1561 406.3592 627.8504 403.4398 624.0431 395.2272 625.2272 395.3834 625.4778 391.1162 622.2329 382.6768 608.4469 380.2655 605.0004 368.4101 589.491 359.0665 581.1207 349.7679 569.143 329.7812 557.4657 311.2305 555.3959 297.138 557.1885 272.8039 561.1253 252.4767 560.5785 233.093 538.2766 224.4619 531.4995 211.9112 508.0123 193.7922 488.1909 186.3806 489.7584 182.5757 498.4981 173.3907 507.5193 163.3782 509.8623 148.7105 503.2552 135.3369 492.4195 128.6502 515.9408 129.3484 530.4145 126.1244 541.4979 121.3609 548.0748 112.2568 547.1257 82.0538 540.251 37.8395 516.4693 18.333 507.1172 25.1662 478.4647 45.9812 391.1907 117.1404 214.1347 174.1536 92.6119 248.1936 42.1016 292.2891 7.4519 301.0021 1 301.7284 3.9052 303.3504 6.3423 304.0771 8.1418 305.0652 9.8102 306.2584 11.4599 307.6756 12.9599 309.2423 14.1226 315.1735 17.7612 317.8594 19.0368 320.8993 21.5496 324.2379 23.6127 325.7671 25.019 327.7436 27.2876 329.3288 28.5065 330.0188 29.2565 335.2581 35.7246 336.6374 38.4239 341.8728 52.7067 343.9974 57.1868 346.2521 62.6601 347.6856 68.7138 347.6473 70.6441 347.1048 73.6047 347.1971 75.61 347.6072 76.2473 348.1668 76.51 349.1182 76.5854 351.0399 76.3241 353.036 76.5499 354.8453 77.3192 356.5611 78.482 357.1391 79.2506 357.2879 80.094 356.9319 83.036 356.9496 85.0037 357.1356 86.0158 357.5456 86.878 358.8321 88.4153 359.6714 88.9967 360.6413 89.372 361.5553 89.5599 364.6522 89.7301 368.3456 90.8377 371.2744 91.2328 377.3376 91.236 378.7637 91.0373 Z" id="52003"/>
<path d="M 583.9553 601.9721 582.4998 602.4878 574.4345 604.0178 558.627 607.8912 544.8519 620.3411 529.9476 627.2576 520.2373 627.2576 513.6885 629.1943 510.7528 627.811 512.1077 624.2143 515.0138 620.9776 516.33 619.5117 517.0758 618.6811 522.9472 613.4245 531.5284 605.4012 537.6256 599.3145 531.98 591.2912 533.7866 584.0978 517.7532 584.9278 482.7509 579.3944 473.718 575.521 469.1964 572.9199 469.9577 570.215 472.6984 569.2823 473.079 566.5774 470.9474 564.0591 470.3503 563.4241 470.3531 563.4005 470.7951 559.582 471.7087 555.1982 472.1655 549.9749 472.6301 547.1015 475.6617 541.0362 480.1349 533.6934 479.5296 529.2658 482.7455 526.5352 482.8017 520.4184 482.9309 516.3426 482.9377 514.4946 485.586 510.1946 486.5158 507.0829 488.2922 502.5322 491.199 492.9163 493.5567 485.6747 496.2696 477.5624 498.7175 469.743 498.866 467.0211 496.2514 466.2462 495.2361 466.4822 493.7182 466.0469 492.6523 465.3742 492.9107 463.9892 494.6871 463.3165 496.2373 463.356 496.9156 464.0683 498.6919 464.1475 499.3702 463.5935 498.432 458.0304 499.5798 458.1274 521.4854 457.2798 526.0972 453.7482 516.6431 443.4359 493.8713 442.4878 493.1839 440.5543 493.8674 435.7804 494.6846 435.6354 496.3988 430.6689 498.6596 421.4088 499.0149 414.6022 499.4348 411.0801 498.2075 405.4211 495.8498 402.1364 486.7096 398.8518 478.3446 400.3952 474.3225 397.7133 474.2752 395.4485 477.7633 391.491 482.4141 388.7604 486.645 385.9111 487.4525 382.5868 493.4394 368.5164 494.9425 365.2539 495.7729 365.4639 500.6968 366.4599 502.599 367.0794 507.3171 369.0121 509.1261 369.5378 510.2079 369.6884 515.058 369.3166 515.8043 368.9235 516.5135 368.2682 518.4922 365.8711 519.3693 365.2908 521.3096 364.5612 523.3057 364.2064 525.3016 364.2639 526.2528 364.4143 527.2412 364.771 529.7958 366.2527 531.3059 367.6027 532.5361 369.1024 533.561 370.7706 533.7083 373.7874 534.3787 375.6052 534.49 376.5796 534.3775 377.6288 533.6295 380.645 533.4771 385.7787 533.6071 386.7344 534.6506 388.515 535.9927 389.9773 541.4926 394.3838 543.3936 396.8957 546.0404 400.0263 547.1212 401.6758 547.475 402.6316 547.5491 403.5685 547.3992 404.6177 546.7825 406.4909 546.6513 407.5213 546.9119 408.3459 549.279 411.1953 549.8747 413.1255 549.9108 415.0929 550.3385 417.0605 550.0746 421.557 549.1969 423.1865 549.3086 423.6175 550.5951 424.4802 553.2615 425.7934 553.858 426.487 554.2118 427.3491 554.4717 429.3353 553.8153 435.1431 553.9079 436.08 554.2621 436.4549 554.8402 436.6052 557.7499 436.8506 559.6894 437.3202 564.705 440.3587 566.1777 441.6336 567.557 443.1334 568.0974 443.9581 568.4699 444.8389 568.6185 445.7946 568.5806 446.7314 567.9639 448.5671 567.3666 449.3536 566.6387 449.9714 566.2279 450.7768 566.3021 451.339 566.6746 452.2385 567.215 453.0445 567.8676 453.3634 569.509 453.4207 571.4112 453.8903 572.3249 454.2469 572.6603 454.7717 572.0246 457.2257 571.8922 460.2046 571.9102 461.1414 572.4126 463.0715 572.4866 464.0271 572.2064 464.589 571.5905 465.2818 570.8628 465.6373 570.2282 466.3489 570.0599 467.0233 570.3021 467.4918 574.4978 469.1058 576.8281 470.9434 578.9531 472.9682 580.4265 473.1378 581.9926 474.1505 587.9385 480.5433 589.4857 481.8745 593.5119 485.999 594.1268 486.7862 594.4061 487.667 594.3868 488.6038 596.4179 491.5466 596.6971 492.4648 596.7711 493.4391 596.3955 497.3546 596.6908 502.226 596.9326 503.1629 597.7894 504.9808 599.8577 508.1859 600.1741 509.0854 600.2855 510.0222 600.2288 511.0152 599.6121 512.9258 597.8193 516.4468 597.2585 518.3387 596.6798 519.0502 596.4368 519.8744 596.6036 521.5607 596.547 522.5536 596.2666 523.5464 595.7065 524.3517 592.0861 527.4968 589.6232 528.9191 589.0818 529.5932 588.8575 530.3986 589.0624 530.8297 589.6776 531.3359 590.3863 531.4488 591.3562 531.3932 593.1285 530.7012 594.0238 530.6456 594.3593 530.9455 594.5454 531.5826 594.4889 532.4819 594.8244 532.8381 595.3465 532.9696 595.8871 533.457 595.9614 533.9629 595.8109 535.8551 596.0903 536.511 597.4515 536.999 602.3193 537.2645 609.0714 536.7256 610.9182 536.2398 611.4968 535.6968 611.6837 535.0599 611.7775 534.1233 611.4984 533.2051 610.9021 532.4178 610.2309 532.0426 607.4525 531.0478 606.0358 529.8291 605.048 528.7606 604.6198 527.5238 604.3786 525.5002 604.343 522.9147 604.4932 521.4348 605.2972 518.3815 605.8014 517.5574 606.5665 516.9397 607.35 516.7341 608.2825 516.7909 610.166 517.2606 611.0986 517.2237 611.8822 516.887 612.0876 516.4375 611.9575 515.8566 610.8393 514.4882 610.6532 513.7574 610.8029 513.0268 611.7925 511.435 612.5017 510.7423 613.0053 510.7426 613.7143 510.3684 613.7712 508.9445 614.033 507.9704 614.6117 507.2027 617.0558 506.1177 618.0445 505.8935 619.9843 505.7449 620.5815 505.3332 621.2721 504.6029 621.8503 504.4909 622.8201 504.6415 623.7711 504.9981 624.7409 505.0924 625.5987 505.4677 626.1386 506.8732 626.7163 507.6605 626.9395 508.5974 626.9388 509.6278 626.5824 512.6065 625.032 516.1839 624.3966 518.0195 624.264 521.0358 624.6178 521.9166 625.8664 523.4912 628.0099 525.5722 629.2399 527.0718 630.0228 527.6719 631.7944 528.0853 632.7644 527.9361 633.6972 527.6369 634.2379 527.8621 635.0209 528.4622 635.9345 528.8937 638.5823 529.9072 639.3466 530.5447 639.9243 531.3132 640.6318 533.1123 641.191 533.6185 642.5526 533.5258 643.7269 534.5383 644.566 534.9323 646.2259 535.0271 647.5308 535.9835 649.3957 536.3595 650.2534 536.7535 650.8684 537.3909 651.2782 538.2342 651.4827 539.1524 651.6306 541.0822 651.105 546.0091 650.7873 546.9269 650.3018 547.7884 648.248 551.0656 647.9489 552.0021 647.8363 552.995 647.9103 553.9318 648.2267 554.8313 648.6928 555.0751 651.453 555.3955 656.2461 555.6986 663.0164 555.7595 663.576 555.6849 740.2472 560.199 765.4616 562.4848 770.1235 563.6311 771.9693 564.4194 774.4301 565.9575 781.1588 571.6018 782.7983 573.9636 784.8651 578.4053 786.5029 582.9591 787.8048 587.7561 788.7539 590.5482 789.776 595.4012 791.0964 600.2357 794.111 609.193 798.3134 625.4762 798.4432 626.4317 798.4238 627.4059 798.3672 628.38 798.1426 629.3166 796.7038 632.8936 796.1996 633.755 795.5836 634.4664 796.0445 641.4358 795.0184 641.8471 799 654.2145 794.3362 655.8595 789.6486 640.0445 790.9356 639.7645 786.8796 627.0972 783.6334 628.4061 782.1449 623.7402 778.3394 624.955 770.1735 596.2105 707.8853 615.5355 695.9033 574.8172 694.057 574.666 694.1153 571.4249 655.5102 568.1192 659.1463 596.4483 608.4682 603.1395 608.2083 601.2847 620.3882 599.6816 617.4153 582.7625 609.1522 584.0122 608.8737 582.1573 617.1181 581.0012 616.2819 576.3545 614.1571 574.2173 606.0644 571.4392 602.3897 572.1487 602.4447 573.7412 600.7845 574.1523 592.7405 582.5401 597.1395 586.4585 603.2054 579.7368 604.6594 580.918 597.2497 589.0814 591.49 583.8507 588.0187 587.4829 585.0348 587.1625 583.6838 599.6949 582.173 599.9 582.0597 602.0918 583.9553 601.9721 Z" id="52001"/>
<path d="M 516.33 619.5117 513.0238 614.5854 510.9325 610.2764 507.3204 609.9853 507.3204 611.2081 508.7938 613.479 509.3641 614.4107 508.9839 616.6816 510.3147 618.1955 512.0257 619.8841 515.0138 620.9776 512.1077 624.2143 510.7528 627.811 513.6885 629.1943 520.2373 627.2576 529.9476 627.2576 544.8519 620.3411 558.627 607.8912 574.4345 604.0178 582.4998 602.4878 583.9553 601.9721 600.8416 600.9051 600.9332 603.3968 599.3664 603.6581 598.4521 604.3694 594.4046 604.8351 590.3741 607.8486 587.2964 608.4087 584.9481 605.8218 581.8148 605.8572 581.0762 623.3919 581.2615 625.3404 582.2855 628.0388 584.2603 631.356 585.8449 632.4248 588.3064 632.951 636.4408 635.6058 636.795 635.7559 637.0933 635.9809 637.3169 636.2808 637.4845 636.6181 637.5588 636.9928 637.5399 637.3675 637.4464 637.7421 637.2597 638.0605 636.9984 638.3413 636.6812 638.5472 636.3268 638.6593 633.8837 638.6202 631.6525 656.1722 634.1888 656.3238 634.8228 656.3992 635.5314 656.6807 636.2583 657.2244 636.7428 657.8617 637.1153 658.6488 637.1894 659.4169 637.1703 659.9789 637.0021 660.5595 636.7219 661.1588 636.3113 661.6831 635.9567 662.0013 635.5462 662.2821 635.0985 662.4691 635.117 662.6564 635.0608 663.0498 634.8741 663.4056 634.5382 663.7426 634.2397 663.8923 633.9412 663.967 633.7361 663.9669 632.4493 663.8911 632.2602 667.6564 632.2788 667.7875 632.2787 667.9374 632.2599 668.1247 632.1851 668.4057 632.0358 668.6304 631.8865 668.7989 631.7185 668.9299 631.5693 669.0047 631.3455 669.0608 631.1776 669.0981 631.0471 669.098 625.6575 668.7947 625.3964 668.757 625.2099 668.7007 624.9862 668.5507 624.7439 668.3632 624.5762 668.157 624.4831 667.8759 624.4274 667.5949 624.4275 667.4075 625.8626 640.8254 613.8523 640.2366 612.5849 667.3247 610.72 667.2298 612.0247 640.1417 605.833 639.8378 604.6403 666.926 602.7754 666.8311 604.0613 639.7617 600.2755 639.5719 598.8218 666.6599 596.9569 666.5463 598.2613 639.4956 597.3848 639.4388 597.3667 638.6146 594.047 638.5562 591.6924 674.5795 591.8975 674.5984 615.7116 677.1806 617.7251 678.0811 617.8932 677.6879 618.4339 677.9318 618.5272 677.8382 618.863 677.7072 619.1987 677.7075 619.4225 677.7826 634.0773 683.4499 646.6477 655.2645 646.3308 654.9645 645.865 654.3647 645.3993 653.6151 645.0268 652.7718 644.9152 652.4158 644.692 651.5726 644.5993 650.6921 644.5997 650.1113 644.6749 649.2871 644.862 648.4067 645.0675 647.8074 645.3103 647.2456 645.5158 646.8523 646.1691 645.9161 646.8224 645.2233 647.2702 644.849 647.774 644.4934 648.483 644.1005 648.7628 643.9508 649.621 643.6516 650.479 643.4649 651.0945 643.3904 651.7099 643.3908 652.3067 643.4474 653.0526 643.5603 653.2577 643.6167 653.9104 643.8232 654.451 644.0858 655.2341 644.4798 655.756 644.911 656.2965 645.361 657.0047 646.1296 657.6194 647.1416 658.1222 648.3222 658.3452 649.5026 658.4005 650.3457 658.3441 651.1324 658.1942 652.0128 658.0821 652.4061 657.9513 652.7995 657.6898 653.38 654.2347 660.459 652.4051 663.2115 635.7821 699.7491 635.6327 700.0674 635.3899 700.5169 634.9046 701.1347 634.4567 701.6215 633.9156 702.0707 633.4865 702.3327 632.9081 702.632 632.2366 702.9126 631.6024 703.062 630.8377 703.1364 630.3155 703.1361 629.6069 703.0794 628.9915 702.9478 628.2271 702.685 627.6492 702.3849 627.1645 702.0661 626.6053 701.6162 626.0835 701.0726 625.6735 700.5665 625.2638 699.7981 624.9659 698.9924 624.8172 698.2805 624.743 697.6247 624.7435 696.8567 624.8933 696.0325 625.0802 695.3583 625.323 694.7964 625.6591 694.1972 626.0512 693.6355 626.4804 693.1861 627.0589 692.6994 627.4134 692.4562 617.8676 688.1598 615.9626 692.4297 615.8132 692.6919 615.6265 692.9915 615.3093 693.2536 615.0108 693.4407 614.6563 693.5716 614.3206 693.6463 613.9662 693.6648 613.5747 693.5896 613.2577 693.477 611.0577 692.4639 610.9272 692.3702 610.946 692.2203 611.5623 690.8532 611.1335 690.6656 610.6479 691.7705 610.5919 691.8267 610.424 691.7891 608.9698 691.1325 609.4555 690.0088 604.7569 688.3384 604.6635 688.4882 569.2186 675.9512 567.799 679.491 567.6492 680.4275 566.7523 683.1433 566.4527 685.0914 566.3009 689.0815 566.6148 694.0085 566.3519 696.9683 566.1088 697.961 565.399 699.8151 564.4654 701.6129 563.6057 704.4598 562.3731 707.2315 560.7476 711.9512 559.5651 716.072 542.449 711.8982 519.8122 709.5136 491.77 696.2626 475.866 688.7474 473.551 687.7772 449.1953 682.3119 438.708 673.3598 427.2543 668.2401 416.4198 657.0524 407.2996 644.5931 395.3834 625.4778 395.2272 625.2272 403.4398 624.0431 406.3592 627.8504 408.5879 628.1561 422.0531 626.2314 421.4035 619.0124 430.0023 617.7062 431.609 610.6924 432.7937 609.3213 433.7854 607.7463 434.9241 606.3963 436.1361 605.1364 437.4217 604.1014 437.7155 602.2114 440.9931 596.7588 442.7983 593.4728 443.6235 591.5771 445.6867 588.902 447.8529 585.616 450.896 580.3079 453.2285 576.2075 454.6956 572.8372 460.5496 567.6194 463.654 566.1184 469.275 563.4005 470.3531 563.4005 470.3503 563.4241 470.9474 564.0591 473.079 566.5774 472.6984 569.2823 469.9577 570.215 469.1964 572.9199 473.718 575.521 482.7509 579.3944 517.7532 584.9278 533.7866 584.0978 531.98 591.2912 537.6256 599.3145 531.5284 605.4012 522.9472 613.4245 517.0758 618.6811 516.33 619.5117 Z" id="52004"/>
<path d="M 516.33 619.5117 515.0138 620.9776 512.0257 619.8841 510.3147 618.1955 508.9839 616.6816 509.3641 614.4107 508.7938 613.479 507.3204 611.2081 507.3204 609.9853 510.9325 610.2764 513.0238 614.5854 516.33 619.5117 Z" id="52003"/>
<path d="M 559.5651 716.072 558.2805 720.5481 557.345 725.3806 557.1945 727.4224 557.3549 739.2804 557.4258 745.3124 556.9937 750.3325 557.4381 755.3906 557.7328 761.2166 558.4751 767.0429 559.3684 769.872 560.1506 771.7083 560.6536 772.5141 562.4239 774.5946 565.6131 774.1095 606.4753 769.4343 606.5487 771.3076 568.0177 775.7408 566.7116 776.8452 565.5358 778.343 565.1809 779.3169 564.5817 783.1004 563.3307 785.6847 563.2555 786.6212 563.6073 790.5178 563.6794 794.5078 564.3656 800.5399 565.4795 808.3707 565.7774 809.27 566.3176 810.0758 566.7087 811.0127 567.2103 813.9726 568.1223 816.8017 570.0961 821.3548 572.5534 827.9313 574.5087 832.3533 576.9288 838.836 579.1078 843.2206 581.9195 849.6099 585.7378 856.543 586.4825 858.4354 587.4324 860.178 589.0906 862.558 592.2583 866.194 596.3744 873.9327 597.6787 875.507 602.0209 879.612 603.4557 881.2051 608.4294 889.113 612.2303 893.8357 617.7088 899.6273 619.8892 901.5955 622.2376 903.3765 625.2008 905.9634 626.0396 906.4322 627.3634 906.6953 628.706 906.6401 653.5242 881.164 655.0898 882.2515 628.9094 909.1501 628.8703 911.8848 629.577 914.7699 629.9493 915.6692 632.0354 919.192 633.2277 920.8786 634.5693 922.378 641.7821 927.6087 646.5152 932.407 648.4714 934.9558 649.869 936.3053 652.4412 937.843 654.3985 938.6685 657.3629 939.3823 662.4904 939.8916 671.2902 942.033 676.9389 943.8538 682.6619 946.143 689.5971 948.0584 691.5921 948.4532 693.7176 948.6607 697.8199 948.6449 705.7639 947.9951 709.6795 948.2039 712.532 948.8616 716.2977 950.2504 719.0751 951.5261 722.8407 952.8774 723.7916 953.1216 724.7984 953.1785 725.5816 953.1416 726.3078 954.5844 727.9887 950.877 733.4235 939.0433 736.5985 932.1715 737.6632 929.6812 738.2982 928.4267 738.6531 927.4904 739.8857 925.0001 743.4684 921.6313 749.9311 907.0447 754.5073 896.7274 755.8707 893.7502 781.8158 835.8898 783.8665 836.7156 768.1192 872.6868 767.1294 874.6903 761.8995 886.2248 755.1007 901.1483 745.0334 923.4118 737.6375 939.3087 724.4519 968.1626 725.6986 971.7597 725.7167 972.4902 723.9437 974.7927 722.8975 977.4516 721.6843 979.1739 720.7685 982.0202 720.339 982.9189 719.7977 983.6865 718.3051 984.9965 709.6682 990.0661 704.6126 993.4338 701.9266 994.8179 698.5874 996.8945 695.8268 998.2973 694.2224 999.4948 693.6811 1000.2811 693.5127 1001.0864 693.4546 1004.1393 692.706 1008.0721 676.2451 1017.8332 608.0607 1057.0281 534.8908 1099.144 386.5124 1129.1148 335.7404 1140.2153 305.0917 1062.6991 276.0342 989.2113 221.6064 949.9438 167.1759 910.6771 161.7829 905.8998 170.2427 901.1973 233.3881 919.4086 294.1516 937.3057 322.6958 940.1702 375.409 940.4295 390.969 929.0197 411.5038 911.5159 421.3479 903.4771 430.451 899.7169 434.8966 890.7704 439.6599 884.6764 443.8933 880.3755 450.5115 880.6456 457.3595 896.3621 479.9951 887.2239 481.5407 886.357 462.6599 846.9339 456.1157 837.8323 488.3055 823.3102 485.6893 817.0836 486.8493 811.7875 493.9143 808.0414 491.8317 802.4869 490.2872 797.1624 489.1428 796.0927 486.1375 795.3176 486.0812 795.2124 484.3773 796.102 481.6021 794.7069 477.383 786.0382 476.3416 780.7389 474.2854 774.3272 473.3508 773.0842 472.1758 771.514 471.1611 769.7148 470.7071 767.6212 469.7458 763.5648 469.3453 761.9619 468.1436 756.9242 467.4493 755.1904 466.8352 753.6856 466.5681 752.2463 467.9033 744.7223 467.1823 741.909 467.1943 741.8923 467.1823 741.909 466.755 738.972 465.2006 733.7464 464.803 729.3179 464.5597 729.043 465.7159 728.5679 465.2487 727.4231 465.9357 726.193 466.7285 725.9988 467.868 727.6836 474.1294 725.1108 475.1055 724.0923 475.9369 723.738 476.8444 723.0752 477.1186 720.2532 475.6926 718.1031 472.4018 715.6842 469.2206 713.0637 470.7015 707.4196 473.0599 706.8821 480.1901 704.4631 482.2194 701.9099 483.9197 699.5581 485.3457 700.3644 482.8776 705.6054 483.426 708.4275 486.5523 708.4275 487.759 710.4432 496.0957 714.6763 494.3406 716.8264 499.0979 717.8926 500.4116 715.8575 504.9115 707.7196 491.77 696.2626 519.8122 709.5136 542.449 711.8982 559.5651 716.072 Z" id="52006"/>
<path d="M 395.3834 625.4778 407.2996 644.5931 416.4198 657.0524 427.2543 668.2401 438.708 673.3598 449.1953 682.3119 473.551 687.7772 475.866 688.7474 491.77 696.2626 504.9115 707.7196 500.4116 715.8575 499.0979 717.8926 494.3406 716.8264 496.0957 714.6763 487.759 710.4432 486.5523 708.4275 483.426 708.4275 482.8776 705.6054 485.3457 700.3644 483.9197 699.5581 482.2194 701.9099 480.1901 704.4631 473.0599 706.8821 470.7015 707.4196 469.2206 713.0637 472.4018 715.6842 475.6926 718.1031 477.1186 720.2532 476.8444 723.0752 475.9369 723.738 475.1055 724.0923 474.1294 725.1108 467.868 727.6836 466.7285 725.9988 465.9357 726.193 465.2487 727.4231 465.7159 728.5679 464.5597 729.043 464.803 729.3179 465.2006 733.7464 466.755 738.972 467.1823 741.909 467.1943 741.8923 467.1823 741.909 467.9033 744.7223 466.5681 752.2463 466.8352 753.6856 467.4493 755.1904 468.1436 756.9242 469.3453 761.9619 469.7458 763.5648 470.7071 767.6212 471.1611 769.7148 472.1758 771.514 473.3508 773.0842 474.2854 774.3272 476.3416 780.7389 477.383 786.0382 481.6021 794.7069 484.3773 796.102 486.0812 795.2124 486.1375 795.3176 489.1428 796.0927 490.2872 797.1624 491.8317 802.4869 493.9143 808.0414 486.8493 811.7875 485.6893 817.0836 488.3055 823.3102 456.1157 837.8323 462.6599 846.9339 481.5407 886.357 479.9951 887.2239 457.3595 896.3621 450.5115 880.6456 443.8933 880.3755 439.6599 884.6764 434.8966 890.7704 430.451 899.7169 421.3479 903.4771 411.5038 911.5159 390.969 929.0197 375.409 940.4295 322.6958 940.1702 294.1516 937.3057 233.3881 919.4086 170.2427 901.1973 161.7829 905.8998 125.2113 873.5034 59.2467 801.8679 31.3016 797.066 45.8773 711.4765 93.2722 689.3627 87.1057 664.2416 1 658.4335 8.3011 549.1808 18.333 507.1172 37.8395 516.4693 82.0538 540.251 112.2568 547.1257 121.3609 548.0748 126.1244 541.4979 129.3484 530.4145 128.6502 515.9408 135.3369 492.4195 148.7105 503.2552 163.3782 509.8623 173.3907 507.5193 182.5757 498.4981 186.3806 489.7584 193.7922 488.1909 211.9112 508.0123 224.4619 531.4995 233.093 538.2766 252.4767 560.5785 272.8039 561.1253 297.138 557.1885 311.2305 555.3959 329.7812 557.4657 349.7679 569.143 359.0665 581.1207 368.4101 589.491 380.2655 605.0004 382.6768 608.4469 391.1162 622.2329 395.3834 625.4778 Z" id="52005"/>
<path d="M 494.9425 365.2539 493.4394 368.5164 487.4525 382.5868 486.645 385.9111 482.4141 388.7604 477.7633 391.491 474.2752 395.4485 474.3225 397.7133 478.3446 400.3952 486.7096 398.8518 495.8498 402.1364 498.2075 405.4211 499.4348 411.0801 499.0149 414.6022 498.6596 421.4088 496.3988 430.6689 494.6846 435.6354 493.8674 435.7804 493.1839 440.5543 493.8713 442.4878 516.6431 443.4359 526.0972 453.7482 521.4854 457.2798 499.5798 458.1274 498.432 458.0304 499.3702 463.5935 498.6919 464.1475 496.9156 464.0683 496.2373 463.356 494.6871 463.3165 492.9107 463.9892 492.6523 465.3742 493.7182 466.0469 495.2361 466.4822 496.2514 466.2462 498.866 467.0211 498.7175 469.743 496.2696 477.5624 493.5567 485.6747 491.199 492.9163 488.2922 502.5322 486.5158 507.0829 485.586 510.1946 482.9377 514.4946 482.9309 516.3426 482.8017 520.4184 482.7455 526.5352 479.5296 529.2658 480.1349 533.6934 475.6617 541.0362 472.6301 547.1015 472.1655 549.9749 471.7087 555.1982 470.7951 559.582 470.3531 563.4005 469.275 563.4005 463.654 566.1184 462.997 566.1864 462.1318 565.1264 455.9182 559.6336 447.581 558.2845 438.6146 559.73 437.4348 563.0064 436.3336 566.5719 435.0752 569.8482 432.6369 571.6791 431.6145 569.8482 426.3447 565.7046 423.7491 558.3809 437.2775 550.7681 431.7368 541.8971 426.5632 539.1561 427.7533 534.4471 422.828 518.6584 420.0655 515.245 419.9896 513.555 416.5227 510.1373 412.8566 507.5984 409.031 504.7666 405.3649 502.1301 402.2168 500.0307 400.2244 498.1265 398.2717 497.0036 394.8846 494.9041 393.45 493.4882 392.1748 492.3164 388.9072 492.1699 386.6357 492.6582 384.9222 493.7323 384.0455 494.2694 382.8899 494.367 377.8689 495.3435 375.4779 492.9511 370.5765 483.4791 368.9427 482.5514 365.8669 475.3172 364.3963 473.9821 363.8921 472.889 364.9734 469.7625 362.6441 460.7502 362.0946 451.9035 361.7801 448.1487 358.9361 442.6537 353.4669 432.8698 345.5606 416.131 339.4536 405.4412 337.5841 401.318 329.8569 395.9731 324.1238 395.9731 311.4113 401.0126 308.7941 398.4165 304.058 381.3127 297.234 348.6495 265.3281 323.0683 283.8414 304.7269 285.0231 291.6947 274.6461 269.9026 285.417 248.2532 335.904 183.0175 367.0416 149.3218 378.7637 91.0373 380.2855 90.8252 382.2074 90.339 385.0619 90.0032 387.9167 89.4051 391.9278 89.2948 397.1519 88.6229 402.4132 88.176 409.4651 88.3485 412.2071 89.3432 414.2964 89.5879 416.2551 90.0388 418.027 90.7144 420.6382 92.1026 424.0324 94.3158 425.3561 95.8157 426.9032 98.4401 427.5184 99.1901 429.9054 101.0091 430.5206 101.7778 430.6322 102.4338 430.4451 103.4456 430.4813 105.3946 430.7979 106.3317 431.3946 106.913 434.2484 107.9828 435.0503 108.5641 435.6095 109.4077 435.8884 111.057 436.3358 111.6569 436.6524 112.6316 436.6146 113.5498 435.6243 116.3602 435.6968 120.1643 435.9015 121.1202 436.3489 121.5702 438.0276 122.227 438.8108 122.8271 439.3327 123.6145 439.4256 124.3266 439.3691 125.3198 439.2379 126.3317 438.9016 127.231 438.4161 128.0365 437.6322 128.6919 435.8593 129.7591 435.2619 130.5458 434.851 131.4825 434.5706 132.5131 434.271 134.4431 433.823 134.9113 431.2296 135.3408 430.4831 135.8651 429.195 137.3448 427.5332 139.9674 426.2824 141.5408 424.6774 142.7393 420.3854 144.9856 419.6016 145.5099 419.1161 146.2779 418.7958 151.9932 418.3849 152.93 416.9665 154.0723 415.8276 155.627 413.6252 157.6309 413.1574 160.2354 412.6905 161.1908 410.9168 163.7758 410.45 164.6938 410.2069 165.6681 410.1312 167.6169 409.4773 169.4905 409.4768 170.3525 410.0728 172.1892 410.1096 173.1824 409.8292 174.1192 409.3251 174.9247 409.1754 175.7679 410.2187 178.3544 410.3487 179.4039 410.1803 180.3969 409.6575 181.2586 408.3881 182.7196 403.3113 187.6264 402.6952 188.4506 401.4439 191.1108 400.3983 192.8155 399.0544 194.1827 396.6843 195.8492 395.0041 198.2281 394.1264 200.0265 392.8745 203.7549 392.1448 207.8582 391.6028 209.7131 389.7355 213.3099 389.4551 214.3216 389.4914 216.3267 390.4215 221.2366 390.7557 224.2912 391.0163 225.2283 392.0595 227.9646 393.9425 230.1768 394.2591 231.1139 394.1841 231.9758 393.8105 232.9312 393.343 234.9735 393.4165 237.0347 393.7704 237.9906 395.8579 241.5145 396.0999 242.5077 396.0988 244.4752 397.5152 246.9869 397.7572 247.9989 397.7193 249.0107 397.1774 250.903 397.0836 251.8774 397.1577 252.833 398.0708 254.5949 401.1281 258.3817 401.8739 259.0191 403.5897 259.9008 406.6488 260.1085 407.6187 260.3714 409.2784 261.3654 410.6954 262.7341 411.8698 264.2712 412.8576 265.9207 416.1926 273.4552 417.571 277.2597 418.428 279.1902 420.646 282.4705 423.9456 286.4635 425.8836 290.1184 426.9833 291.7867 428.1577 293.2677 429.6678 294.7488 433.0991 296.6432 433.7143 297.4118 434.534 299.2298 435.2239 299.886 436.9953 301.1049 439.9223 304.0109 442.4946 307.4413 445.6069 312.6334 447.5644 314.7518 451.2931 318.2203 454.0522 321.2761 458.2086 327.1058 463.2229 333.2545 466.9693 338.4656 472.9526 346.0764 478.4331 352.3565 480.9121 355.5245 488.388 362.4803 490.0288 363.6055 491.7631 364.4497 494.9425 365.2539 Z" id="52002"/>
</g>
</svg>